<?xml version="1.0" encoding="utf-8"?>
<!-- Generator: Adobe Illustrator 16.0.0, SVG Export Plug-In . SVG Version: 6.00 Build 0)  -->
<!DOCTYPE svg PUBLIC "-//W3C//DTD SVG 1.1//EN" "http://www.w3.org/Graphics/SVG/1.1/DTD/svg11.dtd">
<svg version="1.1" id="Layer_1" xmlns="http://www.w3.org/2000/svg" xmlns:xlink="http://www.w3.org/1999/xlink" x="0px" y="0px"
	 width="500px" height="500px" viewBox="0 0 500 500" enable-background="new 0 0 500 500" xml:space="preserve">
<g id="Xf3Zll.tif">
	<g>
		<path fill="#E25E38" d="M460.328,207.608c0,5.303,0,10.607,0,15.911c-0.065,0.458-0.181,0.917-0.19,1.376
			c-0.084,4.365-0.662,8.681-1.298,12.99c-1.36,9.25-3.624,18.278-6.716,27.099c-4.777,13.633-11.32,26.393-19.177,38.488
			c-14.867,22.891-33.307,42.459-55.055,58.92c-15.443,11.689-32.102,21.252-50.129,28.389c-9.655,3.822-19.547,6.883-29.714,8.986
			c-4.646,0.961-9.342,1.699-14.036,2.393c-3.048,0.449-6.129,0.699-9.203,0.92c-3.186,0.227-6.382,0.307-9.572,0.455
			c-0.129,0.006-0.255,0.07-0.4,0.111c0.025,0.193,0.034,0.338,0.064,0.477c2.551,11.73,1.104,44.461,3.649,56.191
			c0.075,0.35,0.08,0.713,0.116,1.07c-0.291,0-0.581,0-0.872,0c-0.34-0.203-0.664-0.439-1.021-0.604
			c-1.187-0.547-2.384-1.064-3.574-1.6c-13.498-6.049-34.995-11.096-48.491-17.15c-0.334-0.148-1.651-0.336-2.038-0.539
			c2.589-1.553,37.139-47.717,35.429-45.506c-0.332-0.223-0.66-0.447-0.996-0.662c-6.594-4.238-7.195-3.467-13.778-7.723
			c-0.94-0.607-1.842-1.297-2.674-2.045c-7.574-6.816-14.547-14.207-20.972-22.113c-14.509-17.852-25.981-37.488-34.521-58.842
			c-9.121-22.811-14.375-46.465-15.315-71.035c-0.299-7.806-0.138-15.61,0.521-23.403c0.561-6.624,1.422-13.201,2.64-19.735
			c2.462-13.208,6.293-26.004,11.602-38.349c7.955-18.496,18.733-35.131,32.822-49.563c13.243-13.565,28.505-24.218,45.963-31.658
			c15.638-6.663,31.963-10.327,48.946-11.057c0.5-0.021,0.997-0.123,1.496-0.186c3.778,0,7.556,0,11.334,0
			c0.354,0.057,0.708,0.142,1.064,0.164c1.595,0.098,3.189,0.173,4.783,0.264c4.714,0.271,9.394,0.861,14.051,1.599
			c6.409,1.015,12.732,2.44,19.015,4.074c10.985,2.857,21.365,7.122,31.074,13.021c13.95,8.477,25.967,19.179,36.377,31.699
			c16.968,20.405,28.602,43.513,34.761,69.338c2.082,8.731,3.518,17.571,3.846,26.565
			C460.155,206.765,460.264,207.186,460.328,207.608z M307.562,99.135c-0.261-2.036-0.593-4.025-0.747-6.027
			c-0.096-1.249-0.591-2.248-1.314-3.199c-1.486-1.954-3.504-3.1-5.81-3.786c-2.686-0.798-5.458-0.898-8.233-0.929
			c-2.064-0.023-4.099,0.156-6.077,0.847c-1.224,0.428-2.501,0.705-3.745,1.076c-11.866,3.53-23.289,8.105-34.005,14.361
			c-17.857,10.426-31.809,24.62-41.417,42.989c-5.94,11.354-9.944,23.389-12.441,35.936c-0.995,4.999-1.552,10.05-1.301,15.159
			c0.152,3.123,0.659,6.178,1.98,9.049c0.895,1.942,2.14,3.601,3.861,4.897c0.628,0.474,1.267,0.735,2.082,0.705
			c1.553-0.058,3.118-0.115,4.663,0.011c1.511,0.125,2.693-0.449,3.818-1.312c1.696-1.303,3.023-2.944,4.026-4.798
			c1.356-2.507,2.677-5.047,3.804-7.664c2.754-6.4,5.307-12.888,8.084-19.278c7.508-17.278,18.649-31.812,33.201-43.77
			c7.252-5.959,14.923-11.325,22.749-16.485c8.136-5.363,16.271-10.726,24.405-16.095
			C305.946,100.294,306.721,99.723,307.562,99.135z"/>
		<path fill-rule="evenodd" clip-rule="evenodd" fill="#E25E38" d="M39.673,209.134c0.132-0.962,0.33-1.921,0.387-2.888
			c0.959-16.046,4.804-31.375,11.5-45.977c5.423-11.824,13.039-22.103,22.307-31.187c8.713-8.54,18.508-15.637,29.041-21.748
			c9.368-5.436,19.156-9.992,29.271-13.838c1.574-0.598,3.3-0.81,4.968-1.145c6.394-1.286,12.785-2.579,19.192-3.798
			c1.416-0.269,2.885-0.309,4.333-0.352c4.287-0.126,8.57-0.014,12.837,0.44c5.306,0.563,10.547,1.501,15.703,2.888
			c0.102,0.027,0.192,0.098,0.292,0.15c0.267,0.524,0.006,0.878-0.355,1.233c-1.012,0.991-1.983,2.025-3.014,2.996
			c-1.461,1.376-2.715,2.914-3.885,4.541c-4.598,6.398-9.225,12.775-13.854,19.151c-2.503,3.449-4.523,7.185-6.503,10.94
			c-6.218,11.789-10.935,24.18-14.773,36.921c-2.387,7.926-4.387,15.947-5.816,24.102c-0.897,5.113-1.573,10.255-2.074,15.424
			c-0.765,7.893-0.996,15.801-0.792,23.723c0.146,5.699,0.563,11.382,1.201,17.051c2.968,26.375,10.756,51.335,22.109,75.24
			c9.508,20.02,21.241,38.662,34.903,56.102c0.224,0.287,0.441,0.576,0.653,0.871c0.033,0.047,0.016,0.131,0.022,0.195
			c-1.326,0-2.66,0.096-3.975-0.02c-3.143-0.277-6.282-0.609-9.412-1.006c-5.221-0.66-10.353-1.789-15.427-3.172
			c-17.354-4.721-33.331-12.428-48.161-22.52c-26.079-17.744-46.78-40.404-61.789-68.188c-6.776-12.543-11.853-25.754-15.084-39.652
			c-1.373-5.908-2.4-11.877-2.963-17.919c-0.232-2.494-0.427-4.991-0.649-7.485c-0.031-0.352-0.128-0.699-0.194-1.048
			C39.673,215.818,39.673,212.477,39.673,209.134z M107.021,143.416c-0.094-0.68-0.301-1.946-0.435-3.22
			c-0.072-0.693-0.393-1.037-1.046-1.268c-1.973-0.698-3.932-1.442-5.877-2.216c-0.617-0.246-1.135-0.206-1.696,0.107
			c-1.866,1.041-3.806,1.965-5.606,3.11c-5.986,3.805-11.045,8.662-15.521,14.126c-10.383,12.677-17.326,27.05-20.881,43.031
			c-2.225,10.001-2.732,20.09-0.878,30.226c2.024,11.07,6.799,20.756,14.59,28.922c1.806,1.891,1.804,1.908,4.397,1.598
			c1.639-0.197,3.168-0.705,4.485-1.75c0.536-0.426,1.066-0.865,1.641-1.234c0.556-0.357,0.829-0.818,0.876-1.469
			c0.247-3.415,0.712-6.826,0.714-10.239c0.002-4.921-0.309-9.843-0.522-14.763c-0.238-5.475-0.602-10.947-0.754-16.425
			c-0.149-5.362,0.185-10.716,1.501-15.939c2.285-9.064,5.82-17.638,10.741-25.583c2.703-4.363,5.786-8.488,8.642-12.757
			c1.308-1.953,2.566-3.949,3.695-6.009C106.38,149.304,106.979,146.721,107.021,143.416z"/>
	</g>
</g>
<g id="ysVyb7.tif">
	
		<image overflow="visible" width="1792" height="919" id="Layer_0_1_" xlink:href="50EF7AF8CB02E7DB.png"  transform="matrix(1 0 0 1 2813.3828 2229.9746)">
	</image>
</g>
</svg>
