<?xml version="1.0" encoding="utf-8"?>
<!-- Generator: Adobe Illustrator 16.0.0, SVG Export Plug-In . SVG Version: 6.00 Build 0)  -->
<!DOCTYPE svg PUBLIC "-//W3C//DTD SVG 1.1//EN" "http://www.w3.org/Graphics/SVG/1.1/DTD/svg11.dtd">
<svg version="1.1" id="Layer_1" xmlns="http://www.w3.org/2000/svg" xmlns:xlink="http://www.w3.org/1999/xlink" x="0px" y="0px"
	 width="500px" height="500px" viewBox="0 0 500 500" enable-background="new 0 0 500 500" xml:space="preserve">
<g id="Xf3Zll.tif">
	<g>
		<path fill="#E25E38" d="M1055.799,159.611c0,5.303,0,10.607,0,15.911c-0.065,0.458-0.181,0.917-0.19,1.376
			c-0.084,4.365-0.662,8.681-1.298,12.99c-1.36,9.25-3.624,18.278-6.716,27.099c-4.777,13.633-11.32,26.393-19.177,38.488
			c-14.867,22.891-33.307,42.459-55.055,58.92c-15.443,11.689-32.102,21.252-50.129,28.389c-9.655,3.822-19.547,6.883-29.714,8.986
			c-4.646,0.961-9.342,1.699-14.036,2.393c-3.048,0.449-6.129,0.699-9.203,0.92c-3.186,0.227-6.382,0.307-9.572,0.455
			c-0.129,0.006-0.255,0.07-0.4,0.111c0.025,0.193,0.034,0.338,0.064,0.477c2.551,11.73,1.104,44.461,3.649,56.191
			c0.075,0.35,0.08,0.713,0.116,1.07c-0.291,0-0.581,0-0.872,0c-0.34-0.203-0.664-0.439-1.021-0.604
			c-1.187-0.547-2.384-1.064-3.574-1.6c-13.498-6.049-34.995-11.096-48.491-17.15c-0.334-0.148-1.65-0.336-2.037-0.539
			c2.59-1.553,37.139-47.717,35.429-45.506c-0.332-0.223-0.66-0.447-0.996-0.662c-6.594-4.238-7.194-3.467-13.778-7.723
			c-0.939-0.607-1.842-1.297-2.674-2.045c-7.574-6.816-14.547-14.207-20.972-22.113c-14.509-17.852-25.981-37.488-34.521-58.842
			c-9.121-22.81-14.375-46.464-15.316-71.034c-0.299-7.806-0.138-15.61,0.521-23.403c0.561-6.624,1.423-13.201,2.641-19.735
			c2.463-13.208,6.293-26.004,11.602-38.349c7.955-18.496,18.734-35.131,32.822-49.563c13.243-13.565,28.506-24.218,45.964-31.658
			c15.638-6.663,31.963-10.327,48.946-11.057c0.5-0.021,0.997-0.123,1.496-0.186c3.778,0,7.556,0,11.334,0
			c0.354,0.057,0.708,0.142,1.064,0.164c1.595,0.098,3.189,0.173,4.783,0.264c4.714,0.271,9.394,0.861,14.051,1.599
			c6.409,1.015,12.732,2.44,19.015,4.074c10.985,2.857,21.365,7.122,31.074,13.021c13.95,8.477,25.967,19.179,36.377,31.699
			c16.968,20.405,28.602,43.513,34.761,69.338c2.082,8.731,3.518,17.571,3.846,26.565
			C1055.626,158.767,1055.734,159.188,1055.799,159.611z M903.032,51.137c-0.261-2.036-0.593-4.025-0.747-6.027
			c-0.096-1.249-0.591-2.248-1.314-3.199c-1.486-1.954-3.504-3.1-5.81-3.786c-2.686-0.798-5.458-0.898-8.233-0.929
			c-2.064-0.023-4.099,0.156-6.077,0.847c-1.224,0.428-2.501,0.705-3.745,1.076c-11.866,3.53-23.289,8.105-34.005,14.361
			c-17.856,10.426-31.81,24.62-41.417,42.989c-5.939,11.354-9.944,23.389-12.441,35.936c-0.994,4.999-1.552,10.05-1.301,15.159
			c0.152,3.123,0.659,6.178,1.98,9.049c0.895,1.942,2.14,3.601,3.861,4.897c0.627,0.474,1.267,0.735,2.082,0.705
			c1.553-0.058,3.117-0.115,4.662,0.011c1.512,0.125,2.693-0.449,3.818-1.312c1.697-1.303,3.023-2.944,4.026-4.798
			c1.356-2.507,2.677-5.047,3.804-7.664c2.754-6.4,5.307-12.888,8.084-19.278c7.508-17.278,18.649-31.812,33.201-43.77
			c7.252-5.959,14.923-11.325,22.749-16.485c8.136-5.363,16.271-10.726,24.405-16.095C901.417,52.296,902.191,51.726,903.032,51.137
			z"/>
		<path fill-rule="evenodd" clip-rule="evenodd" fill="#E25E38" d="M635.144,161.137c0.132-0.962,0.329-1.921,0.388-2.888
			c0.959-16.046,4.803-31.375,11.5-45.977c5.424-11.824,13.039-22.103,22.307-31.187c8.713-8.54,18.508-15.637,29.041-21.748
			c9.368-5.436,19.156-9.992,29.271-13.838c1.574-0.598,3.301-0.81,4.968-1.145c6.394-1.286,12.785-2.579,19.192-3.798
			c1.415-0.269,2.885-0.309,4.332-0.352c4.287-0.126,8.57-0.014,12.838,0.44c5.305,0.563,10.547,1.501,15.703,2.888
			c0.102,0.027,0.191,0.098,0.292,0.15c0.267,0.524,0.007,0.878-0.354,1.233c-1.012,0.991-1.983,2.025-3.014,2.996
			c-1.462,1.376-2.716,2.914-3.886,4.541c-4.599,6.398-9.226,12.775-13.854,19.151c-2.503,3.449-4.522,7.185-6.503,10.94
			c-6.218,11.789-10.935,24.18-14.773,36.921c-2.388,7.926-4.388,15.947-5.816,24.102c-0.897,5.113-1.573,10.255-2.073,15.424
			c-0.766,7.893-0.996,15.801-0.793,23.723c0.146,5.699,0.564,11.382,1.201,17.051c2.968,26.375,10.756,51.335,22.109,75.239
			c9.508,20.02,21.241,38.662,34.903,56.102c0.224,0.287,0.441,0.576,0.653,0.871c0.033,0.047,0.016,0.131,0.022,0.195
			c-1.326,0-2.659,0.096-3.975-0.02c-3.144-0.277-6.282-0.609-9.412-1.006c-5.222-0.66-10.353-1.789-15.427-3.172
			c-17.354-4.721-33.33-12.428-48.161-22.52c-26.079-17.744-46.78-40.404-61.788-68.187c-6.777-12.543-11.854-25.754-15.085-39.652
			c-1.373-5.908-2.4-11.877-2.963-17.919c-0.231-2.494-0.427-4.991-0.649-7.485c-0.031-0.352-0.128-0.699-0.194-1.048
			C635.144,167.82,635.144,164.479,635.144,161.137z M702.491,95.418c-0.095-0.68-0.301-1.946-0.435-3.22
			c-0.072-0.693-0.393-1.037-1.047-1.268c-1.973-0.698-3.932-1.442-5.877-2.216c-0.617-0.246-1.135-0.206-1.695,0.107
			c-1.867,1.041-3.807,1.965-5.606,3.11c-5.985,3.805-11.045,8.662-15.521,14.126c-10.383,12.677-17.326,27.05-20.881,43.031
			c-2.225,10.001-2.732,20.09-0.878,30.226c2.024,11.07,6.799,20.756,14.59,28.922c1.806,1.891,1.804,1.908,4.397,1.598
			c1.639-0.197,3.168-0.705,4.484-1.75c0.536-0.426,1.066-0.865,1.641-1.234c0.557-0.357,0.83-0.818,0.877-1.469
			c0.246-3.415,0.713-6.826,0.715-10.239c0.002-4.921-0.309-9.843-0.523-14.763c-0.238-5.475-0.602-10.947-0.754-16.425
			c-0.148-5.362,0.185-10.716,1.502-15.939c2.284-9.064,5.819-17.638,10.74-25.583c2.703-4.363,5.785-8.488,8.643-12.757
			c1.307-1.953,2.566-3.949,3.695-6.009C701.851,101.307,702.449,98.723,702.491,95.418z"/>
	</g>
</g>
<g id="ysVyb7.tif">
	
		<image overflow="visible" width="1792" height="919" id="Layer_0_1_" xlink:href="1EE85CFA98CE9BD.png"  transform="matrix(1 0 0 1 2813.3828 2229.9746)">
	</image>
</g>
<g id="DIbUvE.tif">
	<g>
		<path fill-rule="evenodd" clip-rule="evenodd" fill="#E25E38" d="M162.703,11.619c3.505,0.602,7.01,1.206,10.516,1.805
			c24.056,4.111,44.583,15.1,61.766,32.253c46.281,46.201,92.446,92.517,138.657,138.787c14.71,14.729,29.467,29.412,44.115,44.2
			c4.997,5.045,5.181,9.57,0.36,14.888c-4.184,4.617-8.577,9.139-13.407,13.049c-5.219,4.225-8.869,3.891-13.748-0.81
			c-9.039-8.709-17.855-17.65-26.724-26.535c-15.562-15.593-31.085-31.225-46.638-46.827c-19.73-19.794-39.452-39.598-59.222-59.354
			c-17.764-17.753-35.105-35.969-53.508-53.035c-22.737-21.086-49.573-26.225-78.841-16.058
			c-16.903,5.872-29.687,17.435-38.577,32.812c-13.867,23.984-14.77,49.002-2.834,73.85c3.856,8.028,9.779,15.473,16.109,21.839
			c77.474,77.928,155.216,155.59,232.84,233.37c10.672,10.692,22.963,18.077,38.181,19.884c20.909,2.48,40.179-6.577,48.344-26.44
			c5.984-14.558,4.334-29.176-2.196-43.34c-4.639-10.064-12.368-17.637-20.063-25.278c-12.909-12.821-25.711-25.75-38.573-38.618
			c-12.777-12.781-25.58-25.538-38.357-38.319c-13.036-13.041-26.04-26.113-39.085-39.144c-12.871-12.86-25.742-25.72-38.68-38.513
			c-5.934-5.868-11.559-12.187-18.148-17.222c-11.019-8.419-27.195-6.208-33.343,6.92c-3.818,8.151-1.282,19.152,6.566,27.012
			c34.028,34.08,68.098,68.12,102.151,102.175c6.619,6.62,13.244,13.236,19.854,19.866c5.531,5.549,5.875,10.251,0.625,16.101
			c-3.918,4.367-8.012,8.685-12.577,12.335c-6.331,5.06-9.56,4.556-15.361-1.234c-12.731-12.703-25.429-25.441-38.145-38.16
			c-27.692-27.702-55.325-55.466-83.116-83.068c-9.028-8.968-15.962-19.025-18.728-31.603
			c-7.903-35.947,13.288-67.126,46.723-73.202c20.954-3.808,39.763,1.882,55.157,17.264c22.539,22.521,45.148,44.971,67.677,67.5
			c20.965,20.964,41.846,42.015,62.797,62.992c15.478,15.497,30.983,30.964,46.525,46.396
			c24.606,24.432,34.265,54.015,28.627,87.962c-3.976,23.944-17.563,42.066-38.27,54.859c-9.729,6.013-20.354,9.142-31.519,10.845
			c-0.81,0.123-1.58,0.495-2.369,0.751c-6.162,0-12.325,0-18.488,0c-1.192-0.275-2.372-0.65-3.579-0.812
			c-21.573-2.863-40.226-11.824-55.79-27.01c-12.506-12.2-24.826-24.591-37.203-36.922c-19.969-19.898-39.923-39.812-59.87-59.731
			c-20.738-20.709-41.471-41.423-62.187-62.152c-27.315-27.335-54.758-54.545-81.852-82.096
			c-12.877-13.095-21.692-28.796-26.892-46.477c-4.302-14.63-5.113-29.594-3.831-44.646c1.342-15.755,5.84-30.675,13.714-44.458
			c8.026-14.048,18.544-25.923,31.381-35.806c13.814-10.635,29.238-17.537,46.367-20.661c4.226-0.771,8.467-1.457,12.701-2.183
			C149.391,11.619,156.047,11.619,162.703,11.619z"/>
	</g>
</g>
</svg>
