<?xml version="1.0" encoding="utf-8"?>
<!-- Generator: Adobe Illustrator 16.0.0, SVG Export Plug-In . SVG Version: 6.00 Build 0)  -->
<!DOCTYPE svg PUBLIC "-//W3C//DTD SVG 1.1//EN" "http://www.w3.org/Graphics/SVG/1.1/DTD/svg11.dtd">
<svg version="1.1" id="Layer_1" xmlns="http://www.w3.org/2000/svg" xmlns:xlink="http://www.w3.org/1999/xlink" x="0px" y="0px"
	 width="30px" height="30px" viewBox="0 0 30 30" enable-background="new 0 0 30 30" xml:space="preserve">
<g id="RID4yR.tif">
	<g>
		<path fill-rule="evenodd" clip-rule="evenodd" fill="#E05F3F" stroke="#DF4A26" stroke-width="0.0476" d="M-23.348,12.474
			c-0.684-0.336-0.723-0.404-0.573-1.148c0.52-2.58,1.918-4.541,4.163-5.908c0.22-0.135,0.354-0.109,0.541,0.062
			c0.858,0.778,1.874,1.234,3.021,1.379c1.598,0.202,3.031-0.216,4.3-1.205c0.024-0.02,0.051-0.038,0.075-0.058
			c0.401-0.337,0.404-0.341,0.855-0.053C-8.829,6.91-7.5,8.834-7,11.325c0.023,0.122,0.041,0.247,0.057,0.37
			c0.047,0.38-0.111,0.609-0.483,0.713c-0.051,0.015-0.099,0.043-0.147,0.065C-12.831,12.474-18.089,12.474-23.348,12.474z"/>
		<path fill-rule="evenodd" clip-rule="evenodd" fill="#E05F3F" stroke="#DF4A26" stroke-width="0.0476" d="M-15.46,5.331
			c-2.601,0.028-4.868-2.151-4.867-4.862c0.002-2.68,2.218-4.865,4.864-4.866c2.652,0,4.876,2.194,4.867,4.888
			C-10.605,3.192-12.87,5.357-15.46,5.331z"/>
	</g>
</g>
<circle fill-rule="evenodd" clip-rule="evenodd" fill="none" stroke="#E05F3F" stroke-width="1.8893" cx="15" cy="14.998" r="12.965"/>
<g>
	
		<rect x="7.995" y="10.061" transform="matrix(1 -0.0037 0.0037 1 -0.0428 0.0553)" fill="#E05F3F" stroke="#DF4A26" stroke-width="0.0148" width="13.85" height="3.063"/>
	<path fill="#E05F3F" stroke="#DF4A26" stroke-width="0.0148" d="M19.122,5.464c-0.968-0.415-2.19,0.165-3.047,1.446
		c-0.857,1.282-1.169,1.461-1.169,1.461l0.003,0.892c0,0,1.956-0.002,2.087-0.008c0,0,1.201,0.022,2.346-0.947
		C20.487,7.337,20.09,5.877,19.122,5.464z M18.081,7.902c-0.45,0.427-1.764,0.515-1.764,0.515S16.41,8.15,16.81,7.509
		c0.501-0.803,0.92-0.719,1.225-0.633C18.34,6.962,18.45,7.552,18.081,7.902z"/>
	<path fill="#E05F3F" stroke="#DF4A26" stroke-width="0.0148" d="M14.94,8.354c0,0-0.314-0.16-1.18-1.436
		c-0.866-1.276-2.094-1.846-3.059-1.424c-0.963,0.421-1.35,1.884-0.198,2.845c1.151,0.961,2.353,0.931,2.353,0.931
		c0.131,0.004,2.086-0.008,2.086-0.008L14.94,8.354z M11.602,7.925c-0.37-0.346-0.264-0.937,0.04-1.025
		c0.304-0.088,0.722-0.176,1.229,0.624c0.405,0.638,0.5,0.904,0.5,0.904S12.056,8.35,11.602,7.925z"/>
	<g>
		<path fill="#E05F3F" stroke="#DF4A26" stroke-width="0.0148" d="M13.909,13.977l-4.064,0.015
			c-0.699,0.003-1.264,0.406-1.262,0.901l0.026,7.169c0.002,0.496,0.57,0.895,1.27,0.893l4.064-0.016L13.909,13.977z"/>
		<path fill="#E05F3F" stroke="#DF4A26" stroke-width="0.0148" d="M21.229,14.847c-0.002-0.495-0.568-0.895-1.268-0.892
			l-4.066,0.014l0.034,8.963l4.066-0.017c0.699-0.002,1.263-0.405,1.261-0.9L21.229,14.847z"/>
	</g>
</g>
</svg>
