<?xml version="1.0" encoding="utf-8"?>
<!-- Generator: Adobe Illustrator 16.0.0, SVG Export Plug-In . SVG Version: 6.00 Build 0)  -->
<!DOCTYPE svg PUBLIC "-//W3C//DTD SVG 1.1//EN" "http://www.w3.org/Graphics/SVG/1.1/DTD/svg11.dtd">
<svg version="1.1" id="Layer_1" xmlns="http://www.w3.org/2000/svg" xmlns:xlink="http://www.w3.org/1999/xlink" x="0px" y="0px"
	 width="200px" height="200px" viewBox="0 0 200 200" enable-background="new 0 0 200 200" xml:space="preserve">
<g id="RID4yR.tif">
	<g>
		<path fill-rule="evenodd" clip-rule="evenodd" fill="#E05F3F" stroke="#DF4A26" stroke-width="0.3065" d="M-124.272,118.225
			c-4.404-2.166-4.655-2.599-3.689-7.394c3.345-16.617,12.354-29.245,26.809-38.054c1.419-0.867,2.276-0.701,3.486,0.396
			c5.523,5.016,12.066,7.949,19.452,8.885c10.297,1.294,19.524-1.391,27.699-7.764c0.159-0.126,0.324-0.241,0.479-0.368
			c2.591-2.174,2.606-2.202,5.51-0.341c13.755,8.813,22.317,21.201,25.535,37.246c0.158,0.789,0.269,1.585,0.368,2.381
			c0.301,2.442-0.717,3.924-3.114,4.595c-0.328,0.09-0.633,0.277-0.95,0.418C-56.547,118.225-90.409,118.225-124.272,118.225z"/>
		<path fill-rule="evenodd" clip-rule="evenodd" fill="#E05F3F" stroke="#DF4A26" stroke-width="0.3065" d="M-73.473,72.223
			c-16.745,0.187-31.353-13.849-31.34-31.307c0.007-17.257,14.282-31.334,31.327-31.339c17.075-0.004,31.408,14.13,31.346,31.476
			C-42.205,58.452-56.792,72.393-73.473,72.223z"/>
	</g>
</g>
<path fill-rule="evenodd" clip-rule="evenodd" fill="none" stroke="#E05F3F" stroke-width="12.1672" d="M183.495,99.996
	c0,46.122-37.384,83.502-83.496,83.502c-46.114,0-83.495-37.38-83.495-83.502c0-46.11,37.381-83.494,83.495-83.494
	C146.111,16.502,183.495,53.886,183.495,99.996z"/>
<g id="RPY50X_1_">
	<g>
		<path fill="#E05F3F" stroke="#DF4A26" stroke-width="0.2021" d="M257.095,82.858c0-8.798-0.006-17.178,0.002-25.557
			c0.007-9.302,1.642-10.935,10.94-10.94c5.51-0.003,11.021-0.099,16.524,0.034c5.759,0.139,8.003,2.432,8.069,8.208
			c0.092,7.804,0.016,15.609,0.038,23.414c0.004,1.489,0.13,2.978,0.215,4.84c9.343,0,18.343-0.019,27.342,0.007
			c6.597,0.018,8.896,2.273,8.922,8.716c0.023,6.429,0.045,12.855-0.01,19.281c-0.045,5.418-2.432,7.849-7.809,7.878
			c-9.319,0.058-18.639,0.016-28.643,0.016c0,7.905,0,15.51,0,23.112c0,12.662-0.566,13.23-13.182,13.23
			c-4.59,0-9.184,0.065-13.773-0.021c-6.445-0.122-8.521-2.194-8.592-8.604c-0.094-8.721-0.084-17.441-0.135-26.162
			c-0.002-0.283-0.191-0.565-0.544-1.554c-7.002,0-14.271,0-21.539,0c-14.271,0-14.271,0-14.271-14.316
			c0-4.285-0.018-8.571,0.004-12.855c0.033-6.444,2.33-8.704,8.922-8.723C238.571,82.839,247.565,82.858,257.095,82.858z"/>
	</g>
</g>
<line fill="none" stroke="#DF4A26" stroke-width="16" x1="100" y1="40.9" x2="100" y2="160.546"/>
<line fill="none" stroke="#DF4A26" stroke-width="16" x1="159.822" y1="100" x2="40.177" y2="100"/>
</svg>
