<?xml version="1.0" encoding="utf-8"?>
<!-- Generator: Adobe Illustrator 16.0.0, SVG Export Plug-In . SVG Version: 6.00 Build 0)  -->
<!DOCTYPE svg PUBLIC "-//W3C//DTD SVG 1.1//EN" "http://www.w3.org/Graphics/SVG/1.1/DTD/svg11.dtd">
<svg version="1.1" id="Layer_1" xmlns="http://www.w3.org/2000/svg" xmlns:xlink="http://www.w3.org/1999/xlink" x="0px" y="0px"
	 width="25px" height="25px" viewBox="0 0 25 25" enable-background="new 0 0 25 25" xml:space="preserve">
<g id="Jb5Yag.tif">
	<g>
		<path fill-rule="evenodd" clip-rule="evenodd" fill="#E05F3F" stroke="#DF4A26" stroke-width="0.0295" d="M16.749,2.358
			c-0.255,0.375-0.473,0.696-0.689,1.017c-0.025,0.034-0.051,0.069-0.076,0.104c-0.468,0.674-0.243,0.556-1.069,0.557
			c-2.53,0.006-5.06,0-7.59,0.004c-0.545,0.001-1.013,0.197-1.37,0.622c-0.21,0.25-0.335,0.535-0.345,0.865
			C5.606,5.635,5.602,5.743,5.602,5.852c0,4.831-0.001,9.66,0.001,14.49c0,0.187-0.006,0.378,0.031,0.561
			c0.148,0.715,0.764,1.237,1.497,1.274c0.417,0.021,0.833,0.036,1.251,0.036c3.07,0.004,6.142,0.003,9.213,0.002
			c0.881,0,1.551-0.476,1.751-1.254c0.05-0.187,0.071-0.384,0.071-0.576c0.004-3.014,0.002-6.027,0.001-9.04
			c0-0.086-0.029-0.174-0.016-0.257c0.031-0.179,0.031-0.392,0.132-0.527c0.488-0.649,1.006-1.278,1.516-1.913
			c0.026-0.033,0.061-0.058,0.129-0.12c0.017,0.108,0.036,0.18,0.036,0.25c0.002,4.138,0.01,8.276-0.004,12.415
			c-0.003,1.36-1.019,2.455-2.405,2.652c-0.205,0.029-0.414,0.044-0.623,0.044c-3.849,0.002-7.699,0.011-11.549-0.005
			c-1.385-0.005-2.542-0.901-2.798-2.209c-0.023-0.12-0.031-0.242-0.031-0.363C3.804,15.892,3.804,10.469,3.804,5.048
			c0-1.061,0.511-1.817,1.405-2.336c0.423-0.246,0.887-0.354,1.382-0.354c3.245-0.005,6.487-0.018,9.729-0.026
			C16.441,2.331,16.56,2.346,16.749,2.358z"/>
		<path fill-rule="evenodd" clip-rule="evenodd" fill="#E05F3F" stroke="#DF4A26" stroke-width="0.0295" d="M11.433,12.117
			c0.375-0.48,0.718-0.923,1.063-1.365c1.38-1.764,2.761-3.527,4.141-5.29c0.493-0.629,0.987-1.256,1.475-1.891
			c0.103-0.13,0.179-0.17,0.329-0.06c0.326,0.236,0.664,0.458,1.004,0.675c0.152,0.096,0.171,0.169,0.052,0.316
			c-0.99,1.236-1.972,2.479-2.957,3.721c-1.079,1.358-2.157,2.719-3.231,4.081c-0.255,0.321-0.269,0.327-0.652,0.205
			c-0.315-0.1-0.632-0.194-0.947-0.292C11.629,12.191,11.551,12.16,11.433,12.117z"/>
		<path fill-rule="evenodd" clip-rule="evenodd" fill="#E05F3F" stroke="#DF4A26" stroke-width="0.0295" d="M21.173,5.366
			c-2.325,2.927-4.623,5.824-6.943,8.749c-0.221-0.321-0.411-0.604-0.608-0.888c-0.318-0.456-0.318-0.455,0.027-0.892
			c2.012-2.542,4.022-5.081,6.027-7.626c0.136-0.172,0.231-0.207,0.414-0.072C20.434,4.885,20.791,5.11,21.173,5.366z"/>
		<path fill-rule="evenodd" clip-rule="evenodd" fill="#E05F3F" stroke="#DF4A26" stroke-width="0.0295" d="M10.525,16.004
			c0.062-0.303,0.109-0.54,0.16-0.779c0.183-0.854,0.372-1.709,0.546-2.567c0.033-0.162,0.089-0.207,0.245-0.154
			c0.436,0.143,0.876,0.276,1.31,0.426c0.088,0.029,0.173,0.106,0.231,0.18c0.244,0.322,0.468,0.657,0.718,0.974
			c0.14,0.177,0.077,0.249-0.092,0.333c-0.803,0.405-1.603,0.816-2.404,1.227C11.025,15.751,10.808,15.861,10.525,16.004z"/>
		<path fill-rule="evenodd" clip-rule="evenodd" fill="#E05F3F" stroke="#DF4A26" stroke-width="0.0295" d="M19.413,1.918
			c0.174-0.219,0.322-0.419,0.488-0.608c0.032-0.036,0.13-0.047,0.182-0.028c1.011,0.386,1.907,0.945,2.636,1.753
			c0.114,0.125,0.139,0.22,0.011,0.344c-0.072,0.069-0.129,0.155-0.19,0.235c-0.239,0.311-0.173,0.309-0.511,0.081
			c-0.8-0.539-1.598-1.08-2.397-1.62C19.566,2.031,19.503,1.984,19.413,1.918z"/>
		<path fill-rule="evenodd" clip-rule="evenodd" fill="#E05F3F" stroke="#DF4A26" stroke-width="0.0295" d="M22.04,4.25
			c-0.168,0.219-0.312,0.416-0.473,0.6c-0.028,0.035-0.14,0.045-0.18,0.017c-0.921-0.615-1.837-1.24-2.753-1.863
			c-0.005-0.002-0.006-0.011-0.029-0.05c0.148-0.189,0.299-0.396,0.47-0.585c0.027-0.031,0.159-0.006,0.216,0.031
			C20,2.87,20.702,3.346,21.406,3.821C21.607,3.957,21.811,4.094,22.04,4.25z"/>
	</g>
</g>
</svg>
