<?xml version="1.0" encoding="utf-8"?>
<!-- Generator: Adobe Illustrator 16.0.0, SVG Export Plug-In . SVG Version: 6.00 Build 0)  -->
<!DOCTYPE svg PUBLIC "-//W3C//DTD SVG 1.1//EN" "http://www.w3.org/Graphics/SVG/1.1/DTD/svg11.dtd">
<svg version="1.1" id="Layer_1" xmlns="http://www.w3.org/2000/svg" xmlns:xlink="http://www.w3.org/1999/xlink" x="0px" y="0px"
	 width="100px" height="100px" viewBox="0 0 100 100" enable-background="new 0 0 100 100" xml:space="preserve">
<g>
	
		<rect x="67.588" y="-65.334" transform="matrix(1 -0.0037 0.0037 1 0.2158 0.3694)" fill="#E05F3F" stroke="#DF4A26" stroke-width="0.0691" width="64.824" height="14.334"/>
	<path fill="#E05F3F" stroke="#DF4A26" stroke-width="0.0691" d="M119.674-86.854c-4.525-1.937-10.256,0.771-14.264,6.771
		c-4.014,6-5.473,6.844-5.473,6.844l0.014,4.17c0,0,9.156-0.011,9.771-0.035c0,0,5.621,0.101,10.977-4.438
		C126.061-78.082,124.201-84.916,119.674-86.854z M114.801-75.441c-2.109,2-8.256,2.412-8.256,2.412s0.434-1.25,2.305-4.25
		c2.342-3.759,4.303-3.365,5.73-2.962S116.523-77.076,114.801-75.441z"/>
	<path fill="#E05F3F" stroke="#DF4A26" stroke-width="0.0691" d="M100.099-73.32c0,0-1.469-0.752-5.523-6.723
		c-4.052-5.971-9.804-8.637-14.315-6.666c-4.513,1.972-6.32,8.819-0.929,13.319c5.39,4.5,11.011,4.356,11.011,4.356
		c0.617,0.021,9.771-0.036,9.771-0.036L100.099-73.32z M84.474-75.331c-1.733-1.62-1.235-4.386,0.188-4.802
		c1.423-0.413,3.377-0.821,5.749,2.921c1.896,2.987,2.339,4.234,2.339,4.234S86.6-73.344,84.474-75.331z"/>
	<g>
		<path fill="#E05F3F" stroke="#DF4A26" stroke-width="0.0691" d="M95.273-47.005l-19.025,0.069
			c-3.273,0.013-5.916,1.899-5.908,4.216l0.124,33.559c0.009,2.318,2.667,4.186,5.938,4.174l19.023-0.068L95.273-47.005z"/>
		<path fill="#E05F3F" stroke="#DF4A26" stroke-width="0.0691" d="M129.533-42.935c-0.012-2.319-2.664-4.187-5.936-4.175
			l-19.033,0.068l0.158,41.948l19.031-0.066c3.27-0.016,5.912-1.904,5.9-4.221L129.533-42.935z"/>
	</g>
</g>
<path fill-rule="evenodd" clip-rule="evenodd" fill="#E05F3F" stroke="#DF4A26" stroke-width="0.0585" d="M-186.534-83.641v287.509
	H-25.5V-83.641H-186.534z M-106.017,116.537c-31.735,0-57.464-25.727-57.464-57.465c0-31.736,25.729-57.463,57.464-57.463
	c31.734,0,57.464,25.727,57.464,57.463C-48.553,90.811-74.282,116.537-106.017,116.537z"/>
</svg>
