<?xml version="1.0" encoding="utf-8"?>
<!-- Generator: Adobe Illustrator 16.0.0, SVG Export Plug-In . SVG Version: 6.00 Build 0)  -->
<!DOCTYPE svg PUBLIC "-//W3C//DTD SVG 1.1//EN" "http://www.w3.org/Graphics/SVG/1.1/DTD/svg11.dtd">
<svg version="1.1" id="Layer_1" xmlns="http://www.w3.org/2000/svg" xmlns:xlink="http://www.w3.org/1999/xlink" x="0px" y="0px"
	 width="600px" height="600px" viewBox="0 0 600 600" enable-background="new 0 0 600 600" xml:space="preserve">
<rect x="-1665.139" y="91" fill="#5D5E5E" width="956" height="734"/>
<g id="SfsWyK.tif">
	<g>
		<path fill="#E05F3F" d="M692.757,1005.788c-1.254,0-2.508,0-3.761,0c-0.242-0.031-0.484-0.087-0.727-0.091
			c-5.979-0.074-11.944-0.359-17.873-1.132c-4.694-0.611-9.394-1.244-14.049-2.089c-7.451-1.351-14.769-3.284-21.966-5.65
			c-10.252-3.37-20.106-7.653-29.553-12.882c-1.246-0.691-2.236-1.595-3.027-2.772c-4.049-6.033-7.449-12.41-10.188-19.138
			c-5.215-12.806-7.799-26.167-8.287-39.946c-0.332-9.388,0.129-18.734,1.842-27.999c1.369-7.407,3.512-14.577,6.51-21.483
			c4.412-10.17,10.511-19.247,17.922-27.459c1.688-1.87,3.796-2.646,6.293-2.019c1.21,0.304,2.41,0.668,3.58,1.1
			c9.83,3.614,18.451,9.203,26.183,16.205c5.621,5.093,10.498,10.812,14.375,17.357c0.104,0.178,0.455,0.324,0.673,0.303
			c4.539-0.438,9.068-1.002,13.614-1.342c5.559-0.416,11.132-0.555,16.708-0.34c0.255,0.01,0.51,0.002,0.87,0.002
			c-0.199-0.313-0.339-0.511-0.456-0.72c-1.286-2.274-2.693-4.49-3.826-6.84c-3.038-6.297-4.778-12.959-5.358-19.938
			c-0.453-5.436-0.157-10.82,0.898-16.158c1.205-6.091,3.336-11.854,6.443-17.238c5.835-10.11,13.965-17.779,24.498-22.844
			c5.915-2.844,12.158-4.537,18.712-5.044c0.979-0.075,1.955-0.167,2.935-0.252c1.029,0,2.059,0,3.089,0
			c0.331,0.037,0.661,0.093,0.994,0.107c5.01,0.213,9.896,1.107,14.642,2.724c11.72,3.991,21.042,11.16,28.096,21.309
			c2.703,3.894,4.849,8.078,6.487,12.523c0.135,0.367,0.247,0.602,0.737,0.537c0.995-0.129,2.001-0.24,3.004-0.242
			c9.38-0.018,18.759-0.014,28.139-0.008c1.994,0.002,3.601,1.089,4.104,3.014c0.45,1.723,0.681,3.502,0.955,5.266
			c0.151,0.988,0.194,1.994,0.287,2.992c0,0.851,0,1.701,0,2.553c-0.044,0.33-0.093,0.658-0.13,0.988
			c-0.195,1.687-0.282,3.394-0.6,5.056c-1.675,8.771-5.663,16.311-12.354,22.272c-8.374,7.467-18.17,10.592-29.353,9.164
			c-0.398-0.051-0.644,0.041-0.885,0.392c-0.797,1.161-1.623,2.303-2.476,3.424c-0.238,0.312-0.179,0.525-0.041,0.833
			c1.076,2.402,2.216,4.784,3.185,7.229c4.407,11.121,6.679,22.681,6.897,34.637c0.104,5.734-0.301,11.438-1.173,17.112
			c-1.036,6.756-2.748,13.331-5.149,19.723c-3.957,10.529-9.544,20.125-16.686,28.818c-0.802,0.976-1.755,1.71-2.893,2.226
			c-17.212,7.78-35.233,12.59-53.994,14.65c-5.494,0.604-11.008,0.953-16.538,1.01
			C693.644,1005.693,693.2,1005.754,692.757,1005.788z M690.871,993.383c4.355-0.193,7.515-0.26,10.659-0.494
			c3.968-0.295,7.947-0.559,11.878-1.141c5.141-0.762,10.268-1.675,15.345-2.78c10.098-2.198,19.852-5.501,29.303-9.684
			c0.255-0.112,0.516-0.289,0.688-0.505c5.332-6.651,9.621-13.92,12.849-21.812c3.183-7.775,5.19-15.853,6.029-24.21
			c0.512-5.105,0.587-10.224,0.191-15.351c-0.325-4.219-0.925-8.391-1.849-12.517c-1.773-7.933-4.628-15.46-8.506-22.604
			c-1.555-2.864-1.143-5.406,0.969-7.904c1.698-2.012,3.395-4.062,4.79-6.285c6.291-10.021,8.286-20.938,6.118-32.524
			c-1.97-10.529-7.091-19.355-15.447-26.096c-10.983-8.857-23.492-11.681-37.158-8.175c-11.514,2.953-20.195,9.938-26.151,20.176
			c-5.627,9.673-7.255,20.109-5.265,31.104c1.043,5.758,3.199,11.09,6.375,16.004c2.512,3.883,5.58,7.264,9.13,10.226
			c2.538,2.117,3.094,5.56,1.366,8.198c-1.525,2.331-3.757,3.034-6.437,2.848c-5.42-0.378-10.843-0.803-16.271-0.997
			c-6.76-0.241-13.513,0.107-20.236,0.857c-3.574,0.398-7.153,0.777-10.716,1.276c-3.632,0.509-5.925-0.56-7.596-3.824
			c-1.429-2.793-3.051-5.464-4.934-7.969c-3.719-4.949-8.066-9.283-12.938-13.097c-4.864-3.805-10.087-7.002-15.796-9.391
			c-0.695-0.291-1.063-0.188-1.543,0.396c-8.865,10.818-14.875,23.017-17.789,36.714c-1.127,5.299-1.768,10.662-2.047,16.072
			c-0.361,7.031-0.198,14.051,0.604,21.044c0.507,4.416,1.3,8.784,2.37,13.104c2.541,10.251,6.601,19.845,12.36,28.704
			c0.277,0.425,0.703,0.816,1.148,1.059c11.234,6.142,23.084,10.742,35.463,13.979c9.418,2.462,18.975,4.157,28.688,4.842
			C681.693,992.992,686.882,993.178,690.871,993.383z M791.51,832.71c2.253,12.103,1.032,23.707-3.882,34.915
			c19.281,0.835,32.697-17.858,29.932-34.915C808.903,832.71,800.251,832.71,791.51,832.71z"/>
		<path fill="#E05F3F" d="M738.09,830.284c0.044-5.592,4.329-10.334,9.915-11.094c5.41-0.735,10.579,2.288,12.438,7.053
			c2.44,6.264-1.196,13.196-7.767,14.847c-5.924,1.487-11.87-1.559-13.911-7.138c-0.189-0.521-0.354-1.062-0.447-1.607
			C738.196,831.665,738.162,830.972,738.09,830.284z"/>
	</g>
</g>
<path fill="none" stroke="#E05F3F" stroke-width="22.5" stroke-miterlimit="10" d="M563.098,286.544
	c0,145.156-117.643,262.818-262.758,262.818c-145.125,0-262.758-117.662-262.758-262.818c0-145.095,117.633-262.738,262.758-262.738
	C445.455,23.806,563.098,141.45,563.098,286.544z"/>
<g id="gSld4r.tif">
	<g>
		<g>
			<path d="M-245,384c0-2.334,0-4.666,0-7c2.256-7.893,6.747-13.227,16.061-13.146c0-2.744,0.864-5.556-0.138-7.289
				c-7.509-12.985-5.894-26.428-2.873-40.11c0.864-3.912,1.658-8.069,1.264-11.992c-1.512-15.055,3.212-24.644,15.686-30.461
				c2,0,4,0,6,0c9.147,3.121,15.56,9.671,21.231,17.795c5.624-8.115,12.096-14.291,20.769-17.795c2.333,0,4.667,0,7,0
				c9.51,3.664,14.121,10.912,14.877,20.773c0.291,3.792,0.631,7.746-0.101,11.416c-1.5,7.517,3.975,13.104,4.02,19.06
				c2.449-1.947,4.704-5.04,7.31-5.371c1.851-0.235,4.154,3.28,6.3,5.067c0.889,0.742,1.979,1.953,2.823,1.837
				c0.83-0.115,1.356-1.763,2.207-2.525c1.856-1.666,3.856-4.463,5.753-4.428c1.897,0.034,3.81,2.889,5.574,4.647
				c0.627,0.627,0.837,1.67,1.238,2.523c0,19.334,0,38.666,0,58c-0.696,2.35-1.44,4.686-2.079,7.051
				c-1.62,5.995-5.508,9.808-11.379,11.474c-1.398,0.396-3.434,0.345-4.549-0.418c-2.585-1.767-4.788-4.094-7.261-6.298
				c1.194-0.102,2.776-0.286,4.365-0.361c8.955-0.423,10.856-1.592,12.103-10.518c0.96-6.873,0.714-13.931,0.795-20.908
				c0.112-9.623,0.028-19.25,0.028-29.351c-5.311,0-10.046,0-15.057,0c0,6.644,0.244,12.976-0.069,19.279
				c-0.307,6.18,1.733,12.771-2.255,18.745c-1.054-2.926-1.302-6.006-2.966-7.659c-2.348-2.333-2.625-4.696-2.557-7.569
				c0.103-4.283,0.026-8.57,0.026-13.074c-1.956,4.062-3.568,7.64-5.386,11.107c-1.241,2.368-0.04,8.617,2.399,9.705
				c3.322,1.482,3.988,3.857,3.894,7.212c-0.215,7.658-0.22,15.331,0.023,22.988c0.069,2.179-0.38,5.598,3.42,5.512
				c4.729-0.106,5.851,2.793,5.428,6.466c-0.628,5.467-2.388,10.854-2.555,16.311c-0.17,5.56,1.582,11.175,1.453,16.74
				c-0.187,8.064-5.188,13.762-13.102,15.511c-8.05,1.777-16.153,1.825-24.145-0.781c-1.276-0.416-2.985-0.578-4.155-0.072
				c-8.408,3.625-16.537,2.65-24.657-0.917c-1.232-0.541-3.122-1.09-4.068-0.538c-6.918,4.031-14.46,3.509-21.922,3.264
				c-11.777-0.39-18.538-7.1-18.75-18.849c-0.08-4.434,0.96-8.88,1.335-13.333c0.159-1.885,0.431-4.004-0.225-5.673
				c-3.238-8.239-2.475-16.628-1.814-25.141C-243.402,391.325-244.518,387.639-245,384z M-187.748,357.061
				c0.02,0.435,0.04,0.869,0.059,1.304c9.243-0.775,18.548-1.134,27.708-2.476c5.898-0.865,9.991-4.984,10.356-11.203
				c0.407-6.922,0.612-13.963-0.191-20.826c-1.228-10.49-7.859-16.926-17.793-19.922c-11.208-3.381-22.688-3.623-34.061-1.426
				c-17.429,3.364-24.3,11.812-24.873,29.547c-0.086,2.656,0.042,5.326,0.223,7.98c0.763,11.18,4.549,15.742,15.66,16.875
				C-203.096,357.686-195.39,357.061-187.748,357.061z M-165.365,449.703c3.596,0.188,6.348,0.373,9.104,0.471
				c14.043,0.501,18.695-2.872,15.943-20.291c-0.051-0.324-0.188-0.643-0.326-0.942c-1.922-4.22-1.838-7.998,0.937-12.135
				c1.959-2.919,2.264-6.156-2.464-8.376c-2.297-1.078-4.311-4.891-4.62-7.669c-0.878-7.903-1.008-15.913-1.023-23.882
				c-0.006-3.025-0.761-4.883-3.763-5.281c-7.19-0.957-14.389-1.879-21.604-2.604c-2.736-0.275-5.46,0.438-7.123-2.971
				c-0.566-1.16-3.267-2.086-4.774-1.83c-4.289,0.728-9.937-2.08-12.423,4.334c-0.232,0.598-2.777,0.381-4.249,0.398
				c-3.862,0.049-7.724,0.018-11.586,0.018c2.504,4.226,5.822,6.637,7.469,9.893c4.061,8.029,9.78,12.434,18.798,14.85
				c9.68,2.592,16.196,10.703,21.124,18.843c3.774-1.561,7.195-3.229,10.792-4.314c1.198-0.361,2.847,0.775,4.291,1.229
				c-1.147,0.841-2.208,1.854-3.461,2.483c-2.346,1.181-4.955,1.901-7.144,3.298c-0.926,0.593-1.797,2.664-1.458,3.629
				C-159.284,429.208-159.095,439.303-165.365,449.703z M-209.223,450.314c0.149-0.652,0.299-1.306,0.448-1.957
				c-10.117-9.886-16.121-21.5-15.244-35.287c-4.311-3.282-8.195-6.241-12.885-9.812c0.399,3.802,0.009,7.298,1.218,10.105
				c2.59,6.016,3.478,11.588,0.898,17.963c-1.216,3.005-1.037,7.115-0.075,10.297c0.845,2.793,3.325,6.645,5.679,7.129
				C-222.697,450.086-215.898,449.899-209.223,450.314z M-208.88,387.92c-3.568-6.363-9.137-12.482-17.564-15.408
				c-5.562-1.932-9.11-0.053-10.303,5.062c-1.851,7.934,5.969,22.803,12.388,25.389c2.462-2.231,4.505-4.051,6.509-5.913
				c0.9-0.837,1.717-1.765,2.58-2.644C-213.406,392.508-211.535,390.613-208.88,387.92z M-223.579,301.82
				c9.44-3.188,18.066-6.1,27.48-9.277c-3.702-3.06-7.162-6.696-11.318-9.158c-5.216-3.092-11.028-1.062-13.162,4.589
				C-222.265,292.439-222.669,297.39-223.579,301.82z M-153.167,301.33c1.682-8.013-1.226-16.24-6.982-18.58
				c-5.65-2.296-13.742,2.386-18.198,10.151C-170.009,295.693-161.548,298.525-153.167,301.33z"/>
			<path fill="#FFFFFF" d="M-245,384c0.482,3.639,1.598,7.325,1.32,10.904c-0.661,8.512-1.424,16.899,1.814,25.14
				c0.656,1.669,0.383,3.788,0.225,5.673c-0.375,4.453-1.416,8.899-1.335,13.333c0.212,11.749,6.973,18.459,18.75,18.849
				c7.462,0.245,15.004,0.769,21.922-3.264c0.947-0.552,2.836-0.003,4.068,0.538c8.12,3.567,16.249,4.542,24.657,0.917
				c1.17-0.506,2.879-0.344,4.155,0.072c7.992,2.606,16.095,2.56,24.145,0.781c7.913-1.749,12.915-7.445,13.102-15.511
				c0.129-5.565-1.623-11.182-1.453-16.74c0.167-5.456,1.926-10.844,2.555-16.311c0.422-3.673-0.699-6.572-5.428-6.466
				c-3.801,0.086-3.351-3.333-3.42-5.512c-0.244-7.657-0.238-15.33-0.023-22.988c0.094-3.354-0.572-5.729-3.894-7.212
				c-2.439-1.088-3.64-7.337-2.399-9.705c1.818-3.47,3.43-7.045,5.386-11.106c0,4.504,0.076,8.791-0.026,13.073
				c-0.069,2.873,0.208,5.236,2.557,7.569c1.664,1.652,1.912,4.732,2.966,7.658c3.988-5.975,1.949-12.564,2.255-18.744
				c0.313-6.305,0.069-12.637,0.069-19.279c5.01,0,9.746,0,15.057,0c0,10.102,0.084,19.727-0.028,29.352
				c-0.082,6.978,0.165,14.035-0.795,20.908c-1.246,8.924-3.148,10.094-12.103,10.517c-1.588,0.075-3.171,0.261-4.365,0.361
				c2.474,2.204,4.676,4.531,7.261,6.298c1.116,0.763,3.151,0.814,4.549,0.418c5.871-1.666,9.759-5.479,11.379-11.474
				c0.639-2.364,1.382-4.7,2.079-7.051c0,24.666,0,49.334,0,74c-45,0-90,0-135,0C-245,434-245,409-245,384z"/>
			<path fill="#FFFFFF" d="M-110,327c-0.401-0.854-0.611-1.896-1.238-2.523c-1.764-1.76-3.676-4.613-5.574-4.647
				c-1.898-0.035-3.897,2.762-5.753,4.428c-0.85,0.765-1.376,2.41-2.207,2.525c-0.844,0.116-1.934-1.095-2.823-1.837
				c-2.146-1.787-4.449-5.305-6.3-5.067c-2.606,0.331-4.86,3.424-7.31,5.371c-0.045-5.955-5.52-11.543-4.02-19.06
				c0.732-3.67,0.392-7.624,0.101-11.416c-0.756-9.861-5.367-17.109-14.877-20.773c16.667,0,33.333,0,50,0
				C-110,291.666-110,309.334-110,327z"/>
			<path fill="#FFFFFF" d="M-215,274c-12.473,5.817-17.197,15.406-15.686,30.461c0.394,3.923-0.4,8.08-1.264,11.992
				c-3.021,13.684-4.636,27.125,2.873,40.111c1.002,1.732,0.138,4.545,0.138,7.289c-9.314-0.08-13.805,5.254-16.061,13.146
				c0-34.334,0-68.666,0-103C-234.925,274-224.962,274-215,274z"/>
			<path fill="#FFFFFF" d="M-167,274c-8.672,3.504-15.145,9.68-20.769,17.795C-193.44,283.671-199.853,277.121-209,274
				C-195,274-181,274-167,274z"/>
			<path fill="#FFFFFF" d="M-187.748,357.061c-7.643,0-15.348,0.625-22.912-0.146c-11.111-1.133-14.897-5.694-15.66-16.875
				c-0.181-2.653-0.309-5.324-0.223-7.979c0.573-17.734,7.444-26.184,24.873-29.549c11.373-2.196,22.853-1.955,34.061,1.426
				c9.934,2.998,16.565,9.433,17.793,19.924c0.803,6.861,0.598,13.904,0.191,20.826c-0.365,6.219-4.458,10.338-10.356,11.201
				c-9.16,1.344-18.464,1.7-27.708,2.477C-187.708,357.93-187.728,357.494-187.748,357.061z M-186.189,324.914
				c0.61,0.727,1.887,2.762,2.267,2.605c1.422-0.582,3.213-1.648,3.671-2.953c1.634-4.651,5.19-5.67,9.399-5.711
				c4.236-0.041,7.738,1.119,9.653,5.508c0.617,1.414,2.438,2.303,3.707,3.432c0.542-1.826,1.85-3.824,1.485-5.447
				c-1.252-5.564-7.265-9.281-14.242-9.385c-7.356-0.109-13.551,3.439-15.312,8.811
				C-185.814,322.549-185.889,323.383-186.189,324.914z M-203.783,312.969c-9.053-0.048-15.292,3.168-16.779,8.246
				c-0.548,1.871,0.749,4.282,1.204,6.447c1.35-1.291,3.17-2.346,3.958-3.918c2.052-4.098,5.533-4.908,9.508-4.891
				c3.848,0.018,7.384,0.996,8.885,4.973c0.858,2.273,1.44,5.209,4.324,3.617c1.167-0.646,1.614-4.592,0.848-6.373
				C-194.419,315.061-199.796,313.096-203.783,312.969z M-188.59,342.473c-3.635,6.277-8.277,7.59-14.115,5.742
				c-0.849-0.27-2.12,0.797-3.196,1.246c0.839,0.854,1.527,2.102,2.544,2.49c5.414,2.07,10.393,0.803,14.952-2.553
				c4.677,3.414,9.689,4.606,15.107,2.509c0.964-0.374,1.546-1.731,2.305-2.634c-0.954-0.396-2.101-1.354-2.83-1.103
				C-179.847,350.256-184.514,348.449-188.59,342.473z M-188.531,329.646c-2.3,2.457-5.311,4.588-4.976,5.528
				c0.872,2.455,2.82,5.14,5.076,6.312c2.144,1.115,6.045-3.43,5.177-6.34C-183.8,333.316-186.146,332.023-188.531,329.646z"/>
			<path fill="#FFFFFF" d="M-165.365,449.703c6.271-10.4,6.082-20.495,2.437-30.853c-0.339-0.965,0.532-3.036,1.458-3.629
				c2.189-1.396,4.798-2.118,7.144-3.298c1.253-0.63,2.314-1.644,3.461-2.483c-1.443-0.452-3.093-1.59-4.291-1.229
				c-3.597,1.086-7.017,2.755-10.792,4.314c-4.928-8.14-11.444-16.251-21.124-18.843c-9.018-2.416-14.737-6.819-18.798-14.85
				c-1.647-3.256-4.964-5.667-7.469-9.893c3.862,0,7.725,0.031,11.586-0.018c1.472-0.02,4.017,0.198,4.249-0.398
				c2.487-6.414,8.135-3.606,12.423-4.334c1.507-0.256,4.208,0.67,4.774,1.83c1.662,3.408,4.387,2.694,7.123,2.971
				c7.216,0.725,14.414,1.646,21.604,2.604c3.002,0.398,3.757,2.256,3.763,5.281c0.015,7.969,0.145,15.979,1.023,23.882
				c0.309,2.778,2.323,6.591,4.62,7.669c4.728,2.22,4.423,5.457,2.464,8.376c-2.775,4.137-2.858,7.915-0.937,12.135
				c0.137,0.301,0.274,0.618,0.326,0.942c2.752,17.419-1.9,20.792-15.943,20.291C-159.017,450.076-161.769,449.893-165.365,449.703z
				 M-188.883,378.436c0.727-0.018,1.454-0.035,2.181-0.053c2.033-3.328,6.152-7.021,5.649-9.908
				c-0.941-5.404-6.869-0.355-10.226-2.423c-0.541-0.333-3.583,2.117-3.51,2.257C-192.98,371.768-190.908,375.09-188.883,378.436z"
				/>
			<path fill="#FFFFFF" d="M-209.223,450.314c-6.675-0.415-13.474-0.229-19.961-1.562c-2.354-0.484-4.834-4.336-5.679-7.129
				c-0.962-3.182-1.141-7.292,0.075-10.297c2.58-6.375,1.692-11.947-0.898-17.963c-1.209-2.809-0.818-6.305-1.218-10.105
				c4.69,3.571,8.574,6.53,12.885,9.812c-0.877,13.787,5.126,25.401,15.244,35.287C-208.924,449.01-209.074,449.662-209.223,450.314
				z"/>
			<path fill="#FFFFFF" d="M-208.88,387.92c-2.654,2.693-4.525,4.588-6.391,6.486c-0.863,0.879-1.679,1.807-2.58,2.644
				c-2.003,1.862-4.046,3.682-6.509,5.913c-6.418-2.586-14.238-17.455-12.388-25.389c1.193-5.115,4.741-6.994,10.303-5.062
				C-218.017,375.438-212.448,381.557-208.88,387.92z"/>
			<path fill="#FFFFFF" d="M-223.579,301.82c0.91-4.431,1.314-9.381,3-13.847c2.133-5.651,7.945-7.681,13.162-4.589
				c4.156,2.462,7.616,6.099,11.318,9.158C-205.513,295.721-214.139,298.633-223.579,301.82z"/>
			<path fill="#FFFFFF" d="M-153.167,301.33c-8.38-2.805-16.842-5.637-25.18-8.429c4.456-7.766,12.547-12.447,18.198-10.151
				C-154.394,285.09-151.486,293.317-153.167,301.33z"/>
			<path d="M-186.189,324.914c0.3-1.531,0.375-2.365,0.629-3.141c1.761-5.371,7.956-8.92,15.312-8.812
				c6.977,0.104,12.99,3.819,14.242,9.386c0.365,1.623-0.943,3.62-1.485,5.446c-1.27-1.129-3.09-2.019-3.707-3.433
				c-1.915-4.389-5.417-5.547-9.653-5.508c-4.208,0.041-7.765,1.061-9.399,5.713c-0.458,1.304-2.249,2.369-3.671,2.953
				C-184.302,327.676-185.579,325.641-186.189,324.914z"/>
			<path d="M-203.783,312.969c3.987,0.127,9.364,2.092,11.947,8.102c0.766,1.781,0.319,5.729-0.848,6.373
				c-2.883,1.593-3.465-1.344-4.324-3.616c-1.501-3.978-5.037-4.955-8.885-4.974c-3.976-0.018-7.457,0.793-9.508,4.892
				c-0.788,1.571-2.608,2.627-3.958,3.918c-0.455-2.165-1.751-4.576-1.204-6.447C-219.076,316.137-212.836,312.921-203.783,312.969z
				"/>
			<path d="M-188.59,342.473c4.076,5.978,8.743,7.783,14.768,5.699c0.729-0.252,1.876,0.705,2.83,1.102
				c-0.758,0.902-1.341,2.261-2.305,2.635c-5.418,2.099-10.43,0.906-15.107-2.508c-4.56,3.354-9.538,4.621-14.952,2.552
				c-1.017-0.39-1.705-1.638-2.544-2.49c1.076-0.448,2.347-1.517,3.196-1.246C-196.867,350.062-192.225,348.75-188.59,342.473z"/>
			<path d="M-188.531,329.646c2.385,2.377,4.731,3.67,5.277,5.5c0.868,2.91-3.033,7.455-5.177,6.34
				c-2.256-1.172-4.205-3.855-5.076-6.312C-193.842,334.234-190.831,332.104-188.531,329.646z"/>
			<path d="M-188.883,378.436c-2.025-3.346-4.097-6.668-5.905-10.127c-0.073-0.14,2.97-2.59,3.51-2.257
				c3.356,2.066,9.284-2.981,10.226,2.423c0.503,2.887-3.616,6.58-5.649,9.908C-187.429,378.4-188.156,378.418-188.883,378.436z"/>
		</g>
	</g>
</g>
<rect x="-495" y="49" fill="none" stroke="#E05F3F" stroke-width="22.5" stroke-miterlimit="10" width="124" height="150.924"/>
<rect x="-609" y="-127.118" fill="none" stroke="#FFFFFF" stroke-width="22.5" stroke-miterlimit="10" width="124" height="150.924"/>
<path fill="#E05F3F" d="M-302.998-49.11h65.178v12.314c0,0,0.422,10.455,13.924,3.287c13.502-7.167,52.731-28.682,61.166-32.904
	c8.435-4.212,13.08-5.57-4.212-13.754c-17.303-8.184-58.483-32.643-62.147-33.499c-3.664-0.833-7.042-2.1-7.042,4.223
	c0,6.323,0,15.191,0,15.191h-66.867V-49.11z"/>
<g id="Wr0rlF.tif">
	<g>
		<path fill-rule="evenodd" clip-rule="evenodd" fill="#E05F3F" d="M144.014,320.562c11.636-13.953,23.001-27.578,34.601-41.488
			c28.656,24.083,57.086,47.978,85.81,72.119c5.081-6.053,9.933-11.802,14.752-17.578c44.025-52.773,88.044-105.552,132.07-158.323
			c3.099-3.714,3.138-3.719,6.874-0.588c11.941,10.01,23.866,20.041,35.805,30.055c0.531,0.445,1.133,0.804,2.061,1.456
			c-61.678,73.923-123.024,147.45-184.691,221.36C228.857,391.895,186.555,356.328,144.014,320.562z"/>
	</g>
</g>
</svg>
