<?xml version="1.0" encoding="utf-8"?>
<!-- Generator: Adobe Illustrator 16.0.0, SVG Export Plug-In . SVG Version: 6.00 Build 0)  -->
<!DOCTYPE svg PUBLIC "-//W3C//DTD SVG 1.1//EN" "http://www.w3.org/Graphics/SVG/1.1/DTD/svg11.dtd">
<svg version="1.1" id="Layer_1" xmlns="http://www.w3.org/2000/svg" xmlns:xlink="http://www.w3.org/1999/xlink" x="0px" y="0px"
	 width="25px" height="25px" viewBox="0 0 25 25" enable-background="new 0 0 25 25" xml:space="preserve">
<g id="ZWPHN2.tif">
	<g>
		<path fill="#FFFFFF" d="M16.728,12.459c2.531-2.531,5.02-5.018,7.485-7.484c-1.424-1.421-2.828-2.822-4.292-4.283
			c-2.47,2.47-4.964,4.965-7.481,7.485C9.954,5.686,7.469,3.195,5.015,0.736C3.59,2.161,2.187,3.564,0.718,5.032
			c2.468,2.46,4.967,4.95,7.488,7.462c-2.494,2.494-4.982,4.981-7.443,7.442c1.418,1.421,2.819,2.827,4.281,4.294
			c2.475-2.475,4.969-4.971,7.488-7.488c2.481,2.489,4.964,4.98,7.42,7.442c1.429-1.428,2.832-2.831,4.262-4.261
			C21.751,17.467,19.259,14.981,16.728,12.459z"/>
	</g>
</g>
</svg>
