<?xml version="1.0" encoding="utf-8"?>
<!-- Generator: Adobe Illustrator 16.0.0, SVG Export Plug-In . SVG Version: 6.00 Build 0)  -->
<!DOCTYPE svg PUBLIC "-//W3C//DTD SVG 1.1//EN" "http://www.w3.org/Graphics/SVG/1.1/DTD/svg11.dtd">
<svg version="1.1" id="Layer_1" xmlns="http://www.w3.org/2000/svg" xmlns:xlink="http://www.w3.org/1999/xlink" x="0px" y="0px"
	 width="200px" height="400px" viewBox="0 0 200 400" enable-background="new 0 0 200 400" xml:space="preserve">
<g id="vP9dPN.tif">
	<g>
		<path fill-rule="evenodd" clip-rule="evenodd" fill="#E05F3F" stroke="#DF4A26" stroke-width="0.0585" d="M7.677,198.035
			c0-55.93,0.01-111.861-0.013-167.793c-0.003-8.669,3.722-15.079,11.298-19.225c2.623-1.437,5.481-2.177,8.491-2.194
			c4.695-0.028,9.391-0.031,14.087-0.032c43.11-0.001,86.221,0.021,129.331-0.018c8.115-0.007,14.362,3.259,18.654,10.135
			c1.818,2.912,2.767,6.134,2.844,9.587c0.016,0.738,0.023,1.477,0.023,2.216c0,111.704-0.035,223.407,0.061,335.113
			c0.013,10.955-7.603,19.635-17.323,21.192c-1.291,0.207-2.622,0.246-3.939,0.246c-47.383,0.015-94.767,0.011-142.149,0.013
			c-9.079,0-15.695-4.064-19.539-12.245c-1.066-2.268-1.286-4.953-1.768-7.469c-0.194-1.021-0.056-2.102-0.056-3.158
			C7.677,308.947,7.677,253.492,7.677,198.035z M191.661,198.026c0-55.61,0-111.221,0-166.831c0-0.739,0.012-1.479-0.004-2.216
			c-0.229-9.75-7.66-18.024-17.286-19.224c-1.097-0.136-2.204-0.22-3.307-0.22C123.682,9.521,76.302,9.516,28.921,9.528
			C17.363,9.531,8.417,18.234,8.416,29.541C8.401,141.819,8.405,254.096,8.426,366.374c0,1.465,0.149,2.957,0.463,4.389
			c2.09,9.494,10.075,15.775,20.044,15.777c47.432,0.007,94.864,0.009,142.296,0c11.734-0.002,20.432-8.775,20.432-20.572
			C191.667,309.986,191.667,254.005,191.661,198.026z"/>
		<path fill-rule="evenodd" clip-rule="evenodd" fill="#E05F3F" stroke="#DF4A26" stroke-width="0.0585" d="M19.278,57.776
			c53.866,0,107.656,0,161.566,0c0,95.844,0,191.627,0,287.551c-53.792,0-107.624,0-161.566,0
			C19.278,249.518,19.278,153.691,19.278,57.776z M20.098,344.646c0.596,0.029,1.109,0.074,1.622,0.074
			c52.237,0.004,104.476-0.004,156.709,0.038c1.528,0,1.806-0.499,1.806-1.887c-0.029-94.133-0.029-188.264-0.029-282.396
			c0-0.611,0-1.224,0-1.846c-53.511,0-106.777,0-160.107,0C20.098,153.993,20.098,249.259,20.098,344.646z"/>
		<path fill-rule="evenodd" clip-rule="evenodd" fill="#E05F3F" stroke="#DF4A26" stroke-width="0.0585" d="M99.895,33.253
			c4.06,0,8.118,0,12.177,0c0.367,0,0.739-0.02,1.106,0.008c1.463,0.112,2.336,0.985,2.255,2.31
			c-0.082,1.391-0.895,2.111-2.261,2.112c-8.855,0.014-17.712,0.019-26.567-0.009c-1.447-0.004-2.31-0.948-2.269-2.27
			c0.04-1.27,0.941-2.127,2.433-2.138C91.146,33.235,95.519,33.254,99.895,33.253z M100.015,34.073
			c-4.215,0-8.431,0.006-12.648-0.004c-1.051-0.003-2.214,0.029-2.225,1.379c-0.012,1.426,1.183,1.503,2.298,1.501
			c8.276-0.005,16.549-0.005,24.824-0.003c1.096,0.001,2.342-0.003,2.386-1.417c0.047-1.463-1.205-1.46-2.301-1.459
			C108.237,34.078,104.128,34.074,100.015,34.073z"/>
		<path fill-rule="evenodd" clip-rule="evenodd" fill="#E05F3F" stroke="#DF4A26" stroke-width="0.0585" d="M74.958,35.919
			c-0.029,2.098-1.659,3.688-3.756,3.661c-2.087-0.026-3.676-1.661-3.656-3.759c0.021-2.082,1.679-3.704,3.754-3.672
			C73.381,32.18,74.985,33.834,74.958,35.919z M71.294,32.932c-1.574-0.02-2.942,1.278-3.006,2.851
			c-0.064,1.585,1.39,3.054,2.997,3.028c1.558-0.024,2.923-1.398,2.92-2.941C74.205,34.314,72.854,32.95,71.294,32.932z"/>
		<path fill-rule="evenodd" clip-rule="evenodd" fill="#E05F3F" stroke="#DF4A26" stroke-width="0.0585" d="M100.646,20.557
			c1.571,0.007,2.821,1.211,2.856,2.75c0.038,1.574-1.289,2.939-2.853,2.936c-1.573-0.002-2.925-1.384-2.872-2.931
			C97.832,21.787,99.117,20.551,100.646,20.557z M102.729,23.346c-0.188-1.24-0.894-1.944-2.103-2.009
			c-1.126-0.06-2.145,1.059-2.005,2.186c0.152,1.212,0.874,1.911,2.136,1.86C102.042,25.328,102.584,24.503,102.729,23.346z"/>
		<path fill-rule="evenodd" clip-rule="evenodd" fill="#E05F3F" stroke="#DF4A26" stroke-width="0.0585" d="M99.81,379.876
			c-6.893,0.004-12.585-5.704-12.58-12.609c0.008-6.896,5.718-12.587,12.623-12.577c6.881,0.01,12.631,5.767,12.605,12.617
			C112.431,374.195,106.713,379.874,99.81,379.876z M99.893,379.022c6.481,0.002,11.742-5.29,11.726-11.801
			c-0.017-6.389-5.297-11.675-11.689-11.702c-6.594-0.027-11.897,5.255-11.866,11.82C88.095,373.851,93.331,379.022,99.893,379.022z
			"/>
	</g>
</g>
<rect x="19.278" y="57.776" fill-rule="evenodd" clip-rule="evenodd" fill="#E05F3F" stroke="#DF4A26" stroke-width="0.0585" width="161.566" height="287.551"/>
<g>
	
		<rect x="69.387" y="180.43" transform="matrix(1 -0.0037 0.0037 1 -0.6894 0.3596)" fill="#FFFFFF" width="54.898" height="12.139"/>
	<path fill="#FFFFFF" d="M113.498,162.205c-3.833-1.64-8.686,0.653-12.081,5.734c-3.397,5.082-4.634,5.796-4.634,5.796l0.012,3.532
		c0,0,7.753-0.009,8.276-0.029c0,0,4.76,0.085,9.297-3.759C118.906,169.634,117.331,163.847,113.498,162.205z M109.371,171.871
		c-1.786,1.694-6.992,2.043-6.992,2.043s0.367-1.059,1.952-3.6c1.983-3.184,3.644-2.85,4.853-2.509
		C110.393,168.147,110.83,170.486,109.371,171.871z"/>
	<path fill="#FFFFFF" d="M96.919,173.667c0,0-1.243-0.637-4.678-5.693c-3.431-5.057-8.302-7.315-12.123-5.646
		c-3.821,1.67-5.353,7.469-0.787,11.28c4.565,3.81,9.326,3.689,9.326,3.689c0.522,0.018,8.274-0.03,8.274-0.03L96.919,173.667z
		 M83.688,171.964c-1.468-1.372-1.047-3.715,0.158-4.067c1.206-0.35,2.861-0.696,4.87,2.474c1.605,2.53,1.979,3.586,1.979,3.586
		S85.487,173.646,83.688,171.964z"/>
	<g>
		<path fill="#FFFFFF" d="M92.833,195.953l-16.113,0.059c-2.771,0.011-5.009,1.609-5.002,3.572l0.104,28.418
			c0.008,1.964,2.259,3.545,5.029,3.535l16.112-0.058L92.833,195.953z"/>
		<path fill="#FFFFFF" d="M121.848,199.399c-0.01-1.963-2.257-3.544-5.027-3.534l-16.119,0.058l0.134,35.525l16.117-0.057
			c2.771-0.013,5.008-1.611,4.998-3.573L121.848,199.399z"/>
	</g>
</g>
<circle fill-rule="evenodd" clip-rule="evenodd" fill="none" stroke="#FFFFFF" stroke-width="4.9921" stroke-miterlimit="10" cx="98.038" cy="198.025" r="57.464"/>
</svg>
