<?xml version="1.0" encoding="utf-8"?>
<!-- Generator: Adobe Illustrator 16.0.0, SVG Export Plug-In . SVG Version: 6.00 Build 0)  -->
<!DOCTYPE svg PUBLIC "-//W3C//DTD SVG 1.1//EN" "http://www.w3.org/Graphics/SVG/1.1/DTD/svg11.dtd">
<svg version="1.1" id="Layer_1" xmlns="http://www.w3.org/2000/svg" xmlns:xlink="http://www.w3.org/1999/xlink" x="0px" y="0px"
	 width="30px" height="30px" viewBox="0 0 30 30" enable-background="new 0 0 30 30" xml:space="preserve">
<g id="RID4yR.tif">
	<g>
		<path fill-rule="evenodd" clip-rule="evenodd" fill="#E05F3F" stroke="#DF4A26" stroke-width="0.0476" d="M-23.348,12.474
			c-0.684-0.336-0.723-0.404-0.573-1.148c0.52-2.58,1.918-4.541,4.163-5.908c0.22-0.135,0.354-0.109,0.541,0.062
			c0.858,0.778,1.874,1.234,3.021,1.379c1.598,0.202,3.031-0.216,4.3-1.205c0.024-0.02,0.051-0.038,0.075-0.058
			c0.401-0.337,0.404-0.341,0.855-0.053C-8.829,6.91-7.5,8.834-7,11.325c0.023,0.122,0.041,0.247,0.057,0.37
			c0.047,0.38-0.111,0.609-0.483,0.713c-0.051,0.015-0.099,0.043-0.147,0.065C-12.831,12.474-18.089,12.474-23.348,12.474z"/>
		<path fill-rule="evenodd" clip-rule="evenodd" fill="#E05F3F" stroke="#DF4A26" stroke-width="0.0476" d="M-15.46,5.331
			c-2.601,0.028-4.868-2.151-4.867-4.862c0.002-2.68,2.218-4.865,4.864-4.866c2.652,0,4.876,2.194,4.867,4.888
			C-10.605,3.192-12.87,5.357-15.46,5.331z"/>
	</g>
</g>
<circle fill-rule="evenodd" clip-rule="evenodd" fill="none" stroke="#E05F3F" stroke-width="1.8893" cx="15" cy="14.998" r="12.965"/>
<g>
	
		<rect x="50.2" y="8.392" transform="matrix(1 -0.0037 0.0037 1 -0.0363 0.2115)" fill="#E05F3F" stroke="#DF4A26" stroke-width="0.0148" width="13.85" height="3.063"/>
	<path fill="#E05F3F" stroke="#DF4A26" stroke-width="0.0148" d="M61.327,3.795c-0.968-0.415-2.19,0.165-3.047,1.446
		c-0.857,1.282-1.169,1.461-1.169,1.461l0.003,0.892c0,0,1.956-0.002,2.087-0.008c0,0,1.201,0.022,2.346-0.947
		C62.692,5.668,62.295,4.208,61.327,3.795z M60.286,6.233c-0.45,0.427-1.764,0.515-1.764,0.515s0.093-0.267,0.492-0.908
		c0.501-0.803,0.92-0.719,1.225-0.633C60.545,5.293,60.655,5.883,60.286,6.233z"/>
	<path fill="#E05F3F" stroke="#DF4A26" stroke-width="0.0148" d="M57.146,6.686c0,0-0.313-0.16-1.181-1.436
		c-0.865-1.276-2.094-1.846-3.059-1.424c-0.963,0.421-1.35,1.884-0.197,2.845c1.15,0.961,2.353,0.931,2.353,0.931
		c0.132,0.004,2.087-0.008,2.087-0.008L57.146,6.686z M53.807,6.256c-0.369-0.346-0.264-0.937,0.041-1.025
		c0.304-0.088,0.721-0.176,1.229,0.624c0.404,0.638,0.499,0.904,0.499,0.904S54.262,6.681,53.807,6.256z"/>
	<g>
		<path fill="#E05F3F" stroke="#DF4A26" stroke-width="0.0148" d="M56.114,12.308l-4.064,0.015
			c-0.699,0.003-1.265,0.406-1.263,0.901l0.027,7.169c0.002,0.496,0.57,0.895,1.27,0.893l4.064-0.016L56.114,12.308z"/>
		<path fill="#E05F3F" stroke="#DF4A26" stroke-width="0.0148" d="M63.434,13.178c-0.002-0.495-0.568-0.895-1.268-0.892L58.1,12.3
			l0.033,8.963l4.066-0.017c0.699-0.002,1.263-0.405,1.261-0.9L63.434,13.178z"/>
	</g>
</g>
<g id="_x38_6krje.tif">
	<g>
		<path fill-rule="evenodd" clip-rule="evenodd" fill="#E05F3F" stroke="#DF4A26" stroke-width="0.0463" d="M21.663,18.914
			c-0.335-0.064-0.72-0.128-1.103-0.206c-0.268-0.058-0.472,0.027-0.648,0.22c-0.227,0.248-0.452,0.494-0.688,0.735
			c-0.188,0.19-0.244,0.411-0.179,0.664c0.088,0.342,0.186,0.682,0.27,1.024c0.076,0.312-0.028,0.553-0.316,0.695
			c-0.442,0.214-0.89,0.423-1.343,0.618c-0.288,0.126-0.544,0.048-0.734-0.219c-0.2-0.277-0.393-0.564-0.579-0.854
			c-0.161-0.253-0.378-0.365-0.68-0.343c-0.306,0.023-0.613,0.034-0.919,0.039c-0.278,0.005-0.479,0.124-0.614,0.363
			c-0.17,0.301-0.34,0.6-0.517,0.894c-0.182,0.305-0.422,0.39-0.759,0.269c-0.446-0.161-0.892-0.321-1.333-0.494
			c-0.339-0.131-0.469-0.372-0.401-0.728c0.059-0.311,0.121-0.62,0.188-0.931c0.069-0.321-0.008-0.579-0.274-0.79
			c-0.225-0.179-0.437-0.379-0.635-0.588c-0.217-0.229-0.464-0.292-0.759-0.209s-0.59,0.165-0.887,0.246
			c-0.431,0.114-0.663,0.004-0.85-0.404c-0.171-0.375-0.343-0.744-0.512-1.116c-0.196-0.433-0.133-0.652,0.264-0.924
			c0.254-0.172,0.506-0.347,0.763-0.515c0.251-0.165,0.352-0.392,0.33-0.69c-0.024-0.315-0.039-0.63-0.039-0.946
			c0-0.27-0.104-0.466-0.336-0.599c-0.307-0.176-0.616-0.348-0.918-0.531c-0.309-0.188-0.388-0.417-0.267-0.76
			c0.156-0.437,0.316-0.874,0.482-1.308c0.131-0.34,0.369-0.47,0.725-0.405c0.347,0.063,0.695,0.128,1.041,0.195
			c0.275,0.053,0.486-0.042,0.666-0.253c0.199-0.233,0.406-0.461,0.625-0.675c0.217-0.21,0.285-0.447,0.204-0.734
			c-0.088-0.313-0.176-0.626-0.257-0.941c-0.1-0.385,0.009-0.622,0.374-0.794c0.412-0.194,0.826-0.384,1.242-0.568
			c0.324-0.144,0.571-0.073,0.777,0.22c0.199,0.281,0.39,0.567,0.582,0.854c0.154,0.229,0.363,0.331,0.64,0.315
			c0.353-0.021,0.707-0.028,1.06-0.037c0.254-0.005,0.445-0.11,0.572-0.333c0.17-0.299,0.342-0.598,0.517-0.893
			c0.193-0.324,0.427-0.416,0.776-0.292c0.447,0.158,0.892,0.323,1.333,0.495c0.336,0.13,0.463,0.376,0.395,0.731
			c-0.062,0.32-0.121,0.64-0.186,0.959c-0.062,0.31,0.01,0.559,0.27,0.766c0.231,0.186,0.439,0.401,0.648,0.614
			c0.203,0.206,0.432,0.272,0.71,0.191c0.331-0.096,0.662-0.188,0.994-0.275c0.31-0.081,0.562,0.025,0.701,0.309
			c0.214,0.443,0.42,0.891,0.616,1.343c0.135,0.306,0.057,0.552-0.227,0.753c-0.296,0.209-0.598,0.409-0.898,0.613
			c-0.224,0.15-0.309,0.36-0.293,0.623c0.019,0.315,0.036,0.632,0.033,0.947c-0.005,0.304,0.119,0.516,0.38,0.66
			c0.276,0.154,0.549,0.312,0.822,0.477c0.34,0.197,0.432,0.432,0.304,0.792c-0.161,0.447-0.326,0.891-0.498,1.334
			C22.205,18.802,22.002,18.928,21.663,18.914z M18.328,14.992c-0.002-1.851-1.48-3.319-3.341-3.318
			c-1.82,0-3.309,1.478-3.319,3.292c-0.01,1.855,1.5,3.379,3.335,3.373C16.848,18.331,18.332,16.838,18.328,14.992z"/>
	</g>
</g>
</svg>
