<?xml version="1.0" encoding="utf-8"?>
<!-- Generator: Adobe Illustrator 16.0.0, SVG Export Plug-In . SVG Version: 6.00 Build 0)  -->
<!DOCTYPE svg PUBLIC "-//W3C//DTD SVG 1.1//EN" "http://www.w3.org/Graphics/SVG/1.1/DTD/svg11.dtd">
<svg version="1.1" id="Layer_1" xmlns="http://www.w3.org/2000/svg" xmlns:xlink="http://www.w3.org/1999/xlink" x="0px" y="0px"
	 width="600px" height="600px" viewBox="0 0 600 600" enable-background="new 0 0 600 600" xml:space="preserve">
<rect x="-1665.139" y="91" fill-rule="evenodd" clip-rule="evenodd" fill="#5D5E5E" width="956" height="734"/>
<g id="SfsWyK.tif">
	<g>
		<path fill="#E05F3F" d="M879.683,646.402c-1.115,0-2.229,0-3.342,0c-0.215-0.027-0.431-0.076-0.646-0.08
			c-5.311-0.066-10.613-0.32-15.882-1.006c-4.172-0.543-8.346-1.105-12.482-1.855c-6.623-1.199-13.124-2.92-19.52-5.021
			c-9.109-2.994-17.867-6.801-26.261-11.447c-1.107-0.615-1.987-1.416-2.69-2.463c-3.598-5.361-6.62-11.029-9.055-17.006
			c-4.634-11.381-6.93-23.254-7.363-35.498c-0.295-8.342,0.114-16.648,1.637-24.88c1.217-6.582,3.12-12.953,5.784-19.091
			c3.921-9.037,9.339-17.104,15.926-24.4c1.5-1.662,3.372-2.35,5.591-1.793c1.075,0.27,2.143,0.594,3.182,0.977
			c8.736,3.212,16.396,8.178,23.266,14.4c4.995,4.525,9.329,9.608,12.773,15.424c0.094,0.158,0.405,0.289,0.599,0.27
			c4.033-0.391,8.058-0.891,12.098-1.193c4.939-0.369,9.893-0.492,14.848-0.301c0.226,0.008,0.452,0.002,0.772,0.002
			c-0.177-0.279-0.3-0.455-0.405-0.641c-1.143-2.021-2.393-3.99-3.4-6.076c-2.699-5.596-4.246-11.516-4.762-17.717
			c-0.402-4.83-0.139-9.615,0.799-14.359c1.071-5.412,2.965-10.533,5.727-15.317c5.186-8.985,12.408-15.8,21.77-20.3
			c5.256-2.526,10.804-4.031,16.628-4.481c0.869-0.067,1.737-0.148,2.606-0.224c0.914,0,1.829,0,2.745,0
			c0.294,0.033,0.587,0.082,0.883,0.096c4.452,0.188,8.795,0.984,13.011,2.42c10.413,3.547,18.698,9.916,24.966,18.935
			c2.402,3.459,4.309,7.179,5.766,11.128c0.119,0.326,0.219,0.535,0.654,0.479c0.885-0.115,1.778-0.214,2.67-0.216
			c8.335-0.016,16.669-0.013,25.004-0.007c1.772,0.002,3.199,0.967,3.646,2.678c0.4,1.529,0.605,3.111,0.849,4.678
			c0.136,0.88,0.174,1.773,0.256,2.66c0,0.756,0,1.512,0,2.268c-0.039,0.293-0.082,0.586-0.116,0.879
			c-0.173,1.498-0.25,3.016-0.531,4.492c-1.488,7.793-5.032,14.494-10.978,19.792c-7.441,6.636-16.146,9.412-26.082,8.144
			c-0.355-0.045-0.572,0.037-0.786,0.348c-0.709,1.032-1.442,2.045-2.2,3.042c-0.212,0.278-0.158,0.468-0.036,0.74
			c0.957,2.136,1.969,4.251,2.829,6.425c3.917,9.881,5.936,20.152,6.13,30.777c0.094,5.096-0.267,10.164-1.042,15.207
			c-0.921,6.004-2.441,11.846-4.576,17.525c-3.517,9.357-8.481,17.883-14.826,25.607c-0.713,0.867-1.56,1.52-2.57,1.979
			c-15.295,6.914-31.309,11.188-47.979,13.02c-4.883,0.537-9.782,0.846-14.696,0.896
			C880.47,646.318,880.076,646.373,879.683,646.402z M878.007,635.379c3.871-0.172,6.678-0.23,9.472-0.439
			c3.526-0.262,7.063-0.496,10.555-1.014c4.568-0.676,9.124-1.488,13.636-2.469c8.973-1.955,17.641-4.889,26.039-8.605
			c0.227-0.1,0.457-0.258,0.61-0.449c4.738-5.91,8.55-12.369,11.418-19.381c2.827-6.91,4.612-14.086,5.357-21.514
			c0.455-4.537,0.521-9.084,0.171-13.641c-0.29-3.748-0.822-7.455-1.643-11.121c-1.577-7.049-4.112-13.738-7.559-20.087
			c-1.382-2.545-1.015-4.804,0.861-7.023c1.509-1.788,3.015-3.61,4.256-5.585c5.591-8.906,7.363-18.605,5.437-28.902
			c-1.75-9.357-6.301-17.199-13.727-23.188c-9.761-7.872-20.875-10.38-33.019-7.265c-10.231,2.625-17.947,8.831-23.24,17.929
			c-5,8.595-6.446,17.87-4.677,27.64c0.927,5.115,2.843,9.854,5.665,14.221c2.23,3.45,4.959,6.455,8.111,9.086
			c2.257,1.882,2.75,4.939,1.215,7.285c-1.355,2.072-3.338,2.697-5.719,2.53c-4.816-0.336-9.635-0.712-14.459-0.886
			c-6.007-0.215-12.008,0.096-17.983,0.762c-3.176,0.354-6.356,0.691-9.521,1.135c-3.227,0.452-5.265-0.496-6.75-3.398
			c-1.27-2.481-2.711-4.855-4.383-7.081c-3.305-4.397-7.168-8.249-11.498-11.637c-4.322-3.381-8.963-6.222-14.036-8.345
			c-0.618-0.259-0.946-0.168-1.371,0.351c-7.878,9.614-13.218,20.452-15.808,32.624c-1.002,4.709-1.57,9.475-1.818,14.282
			c-0.322,6.249-0.177,12.485,0.535,18.7c0.45,3.924,1.154,7.807,2.106,11.645c2.259,9.109,5.864,17.635,10.983,25.508
			c0.246,0.377,0.625,0.725,1.021,0.939c9.983,5.457,20.512,9.547,31.512,12.42c8.369,2.189,16.861,3.695,25.494,4.303
			C869.851,635.033,874.462,635.197,878.007,635.379z M967.436,492.604c2.002,10.754,0.917,21.066-3.45,31.025
			c17.134,0.742,29.056-15.869,26.598-31.025C982.892,492.604,975.203,492.604,967.436,492.604z"/>
		<path fill-rule="evenodd" clip-rule="evenodd" fill="#E05F3F" d="M919.966,490.448c0.039-4.97,3.847-9.183,8.811-9.858
			c4.808-0.653,9.4,2.033,11.051,6.268c2.17,5.566-1.062,11.727-6.9,13.193c-5.264,1.32-10.548-1.386-12.361-6.344
			c-0.169-0.463-0.314-0.943-0.398-1.428C920.061,491.676,920.03,491.059,919.966,490.448z"/>
	</g>
</g>
<path fill-rule="evenodd" clip-rule="evenodd" fill="none" stroke="#E05F3F" stroke-width="22.5" stroke-miterlimit="10" d="
	M563.098,286.544c0,145.156-117.643,262.818-262.758,262.818c-145.125,0-262.758-117.662-262.758-262.818
	c0-145.095,117.633-262.738,262.758-262.738C445.455,23.806,563.098,141.45,563.098,286.544z"/>
<g id="gSld4r.tif">
	<g>
		<g>
			<path d="M-245,384c0-2.334,0-4.666,0-7c2.256-7.893,6.747-13.227,16.061-13.146c0-2.744,0.864-5.556-0.138-7.289
				c-7.509-12.986-5.894-26.428-2.873-40.111c0.864-3.912,1.658-8.069,1.264-11.992c-1.512-15.055,3.212-24.644,15.686-30.461
				c2,0,4,0,6,0c9.147,3.121,15.56,9.671,21.231,17.795c5.624-8.115,12.096-14.291,20.769-17.795c2.333,0,4.667,0,7,0
				c9.51,3.664,14.121,10.912,14.877,20.773c0.291,3.792,0.631,7.745-0.101,11.416c-1.5,7.516,3.975,13.104,4.02,19.059
				c2.449-1.947,4.704-5.04,7.31-5.371c1.851-0.236,4.154,3.28,6.3,5.068c0.889,0.741,1.979,1.953,2.823,1.836
				c0.83-0.115,1.356-1.762,2.207-2.525c1.856-1.666,3.856-4.463,5.753-4.428s3.81,2.889,5.574,4.648
				c0.627,0.627,0.837,1.67,1.238,2.523c0,19.334,0,38.666,0,58c-0.696,2.35-1.44,4.686-2.079,7.051
				c-1.62,5.995-5.508,9.807-11.379,11.473c-1.398,0.397-3.434,0.345-4.549-0.418c-2.585-1.766-4.788-4.093-7.261-6.297
				c1.194-0.102,2.776-0.287,4.365-0.362c8.955-0.423,10.856-1.592,12.103-10.517c0.96-6.873,0.714-13.931,0.795-20.908
				c0.112-9.624,0.028-19.25,0.028-29.351c-5.311,0-10.046,0-15.057,0c0,6.644,0.244,12.976-0.069,19.279
				c-0.307,6.18,1.733,12.771-2.255,18.745c-1.054-2.926-1.302-6.006-2.966-7.659c-2.348-2.333-2.625-4.696-2.557-7.569
				c0.103-4.283,0.026-8.57,0.026-13.074c-1.956,4.062-3.568,7.639-5.386,11.107c-1.241,2.368-0.04,8.617,2.399,9.705
				c3.322,1.482,3.988,3.858,3.894,7.212c-0.215,7.658-0.22,15.331,0.023,22.988c0.069,2.179-0.38,5.598,3.42,5.512
				c4.729-0.106,5.851,2.793,5.428,6.466c-0.628,5.467-2.388,10.854-2.555,16.31c-0.17,5.56,1.582,11.175,1.453,16.741
				c-0.187,8.064-5.188,13.761-13.102,15.51c-8.05,1.778-16.153,1.826-24.145-0.781c-1.276-0.416-2.985-0.578-4.155-0.072
				c-8.408,3.625-16.537,2.65-24.657-0.917c-1.232-0.541-3.122-1.09-4.068-0.538c-6.918,4.031-14.46,3.509-21.922,3.263
				c-11.777-0.389-18.538-7.099-18.75-18.848c-0.08-4.434,0.96-8.88,1.335-13.333c0.159-1.885,0.431-4.004-0.225-5.673
				c-3.238-8.239-2.475-16.628-1.814-25.14C-243.402,391.325-244.518,387.639-245,384z M-187.748,357.061
				c0.02,0.434,0.04,0.868,0.059,1.303c9.243-0.775,18.548-1.133,27.708-2.476c5.898-0.864,9.991-4.983,10.356-11.202
				c0.407-6.922,0.612-13.964-0.191-20.826c-1.228-10.491-7.859-16.926-17.793-19.923c-11.208-3.381-22.688-3.622-34.061-1.426
				c-17.429,3.365-24.3,11.813-24.873,29.548c-0.086,2.656,0.042,5.326,0.223,7.98c0.763,11.18,4.549,15.742,15.66,16.875
				C-203.096,357.685-195.39,357.061-187.748,357.061z M-165.365,449.703c3.596,0.189,6.348,0.373,9.104,0.471
				c14.043,0.501,18.695-2.872,15.943-20.291c-0.051-0.324-0.188-0.643-0.326-0.943c-1.922-4.219-1.838-7.998,0.937-12.134
				c1.959-2.919,2.264-6.157-2.464-8.376c-2.297-1.078-4.311-4.891-4.62-7.669c-0.878-7.904-1.008-15.913-1.023-23.882
				c-0.006-3.025-0.761-4.883-3.763-5.282c-7.19-0.956-14.389-1.878-21.604-2.603c-2.736-0.275-5.46,0.438-7.123-2.971
				c-0.566-1.16-3.267-2.086-4.774-1.83c-4.289,0.728-9.937-2.079-12.423,4.334c-0.232,0.598-2.777,0.381-4.249,0.399
				c-3.862,0.048-7.724,0.017-11.586,0.017c2.504,4.226,5.822,6.637,7.469,9.893c4.061,8.029,9.78,12.434,18.798,14.849
				c9.68,2.592,16.196,10.704,21.124,18.843c3.774-1.56,7.195-3.229,10.792-4.314c1.198-0.361,2.847,0.775,4.291,1.228
				c-1.147,0.841-2.208,1.854-3.461,2.484c-2.346,1.18-4.955,1.901-7.144,3.298c-0.926,0.592-1.797,2.664-1.458,3.629
				C-159.284,429.208-159.095,439.303-165.365,449.703z M-209.223,450.314c0.149-0.652,0.299-1.305,0.448-1.957
				c-10.117-9.885-16.121-21.5-15.244-35.287c-4.311-3.282-8.195-6.241-12.885-9.812c0.399,3.802,0.009,7.298,1.218,10.105
				c2.59,6.016,3.478,11.588,0.898,17.963c-1.216,3.005-1.037,7.115-0.075,10.297c0.845,2.793,3.325,6.645,5.679,7.129
				C-222.697,450.086-215.898,449.899-209.223,450.314z M-208.88,387.92c-3.568-6.364-9.137-12.483-17.564-15.408
				c-5.562-1.932-9.11-0.053-10.303,5.062c-1.851,7.934,5.969,22.803,12.388,25.389c2.462-2.232,4.505-4.051,6.509-5.913
				c0.9-0.837,1.717-1.765,2.58-2.644C-213.406,392.508-211.535,390.613-208.88,387.92z M-223.579,301.82
				c9.44-3.188,18.066-6.1,27.48-9.277c-3.702-3.06-7.162-6.696-11.318-9.158c-5.216-3.092-11.028-1.062-13.162,4.589
				C-222.265,292.439-222.669,297.39-223.579,301.82z M-153.167,301.33c1.682-8.013-1.226-16.24-6.982-18.58
				c-5.65-2.296-13.742,2.386-18.198,10.151C-170.009,295.693-161.548,298.525-153.167,301.33z"/>
			<path fill-rule="evenodd" clip-rule="evenodd" fill="#FFFFFF" d="M-245,384c0.482,3.639,1.598,7.325,1.32,10.904
				c-0.661,8.512-1.424,16.9,1.814,25.14c0.656,1.669,0.383,3.788,0.225,5.673c-0.375,4.453-1.416,8.899-1.335,13.333
				c0.212,11.749,6.973,18.459,18.75,18.848c7.462,0.246,15.004,0.769,21.922-3.263c0.947-0.552,2.836-0.003,4.068,0.538
				c8.12,3.567,16.249,4.542,24.657,0.917c1.17-0.506,2.879-0.344,4.155,0.072c7.992,2.607,16.095,2.56,24.145,0.781
				c7.913-1.749,12.915-7.445,13.102-15.51c0.129-5.566-1.623-11.182-1.453-16.741c0.167-5.456,1.926-10.843,2.555-16.31
				c0.422-3.673-0.699-6.572-5.428-6.466c-3.801,0.086-3.351-3.333-3.42-5.512c-0.244-7.657-0.238-15.33-0.023-22.988
				c0.094-3.354-0.572-5.729-3.894-7.212c-2.439-1.088-3.64-7.337-2.399-9.705c1.818-3.469,3.43-7.045,5.386-11.107
				c0,4.504,0.076,8.791-0.026,13.074c-0.069,2.873,0.208,5.236,2.557,7.569c1.664,1.653,1.912,4.733,2.966,7.659
				c3.988-5.975,1.949-12.565,2.255-18.745c0.313-6.304,0.069-12.636,0.069-19.279c5.01,0,9.746,0,15.057,0
				c0,10.101,0.084,19.727-0.028,29.351c-0.082,6.978,0.165,14.035-0.795,20.908c-1.246,8.925-3.148,10.094-12.103,10.517
				c-1.588,0.075-3.171,0.261-4.365,0.362c2.474,2.204,4.676,4.531,7.261,6.297c1.116,0.763,3.151,0.815,4.549,0.418
				c5.871-1.666,9.759-5.478,11.379-11.473c0.639-2.365,1.382-4.701,2.079-7.051c0,24.666,0,49.334,0,74c-45,0-90,0-135,0
				C-245,434-245,409-245,384z"/>
			<path fill-rule="evenodd" clip-rule="evenodd" fill="#FFFFFF" d="M-110,327c-0.401-0.854-0.611-1.896-1.238-2.523
				c-1.764-1.76-3.676-4.613-5.574-4.648s-3.897,2.762-5.753,4.428c-0.85,0.764-1.376,2.41-2.207,2.525
				c-0.844,0.117-1.934-1.095-2.823-1.836c-2.146-1.788-4.449-5.305-6.3-5.068c-2.606,0.331-4.86,3.424-7.31,5.371
				c-0.045-5.955-5.52-11.543-4.02-19.059c0.732-3.671,0.392-7.624,0.101-11.416c-0.756-9.861-5.367-17.109-14.877-20.773
				c16.667,0,33.333,0,50,0C-110,291.666-110,309.334-110,327z"/>
			<path fill-rule="evenodd" clip-rule="evenodd" fill="#FFFFFF" d="M-215,274c-12.473,5.817-17.197,15.406-15.686,30.461
				c0.394,3.923-0.4,8.08-1.264,11.992c-3.021,13.684-4.636,27.125,2.873,40.111c1.002,1.733,0.138,4.545,0.138,7.289
				c-9.314-0.08-13.805,5.254-16.061,13.146c0-34.334,0-68.666,0-103C-234.925,274-224.962,274-215,274z"/>
			<path fill-rule="evenodd" clip-rule="evenodd" fill="#FFFFFF" d="M-167,274c-8.672,3.504-15.145,9.68-20.769,17.795
				C-193.44,283.671-199.853,277.121-209,274C-195,274-181,274-167,274z"/>
			<path fill-rule="evenodd" clip-rule="evenodd" fill="#FFFFFF" d="M-187.748,357.061c-7.643,0-15.348,0.624-22.912-0.146
				c-11.111-1.133-14.897-5.695-15.66-16.875c-0.181-2.654-0.309-5.324-0.223-7.98c0.573-17.734,7.444-26.183,24.873-29.548
				c11.373-2.196,22.853-1.955,34.061,1.426c9.934,2.997,16.565,9.432,17.793,19.923c0.803,6.862,0.598,13.904,0.191,20.826
				c-0.365,6.219-4.458,10.338-10.356,11.202c-9.16,1.343-18.464,1.7-27.708,2.476
				C-187.708,357.929-187.728,357.494-187.748,357.061z M-186.189,324.914c0.61,0.727,1.887,2.762,2.267,2.606
				c1.422-0.583,3.213-1.649,3.671-2.953c1.634-4.652,5.19-5.671,9.399-5.712c4.236-0.04,7.738,1.119,9.653,5.508
				c0.617,1.414,2.438,2.303,3.707,3.432c0.542-1.826,1.85-3.824,1.485-5.447c-1.252-5.565-7.265-9.281-14.242-9.385
				c-7.356-0.109-13.551,3.439-15.312,8.811C-185.814,322.549-185.889,323.383-186.189,324.914z M-203.783,312.969
				c-9.053-0.048-15.292,3.168-16.779,8.246c-0.548,1.871,0.749,4.282,1.204,6.447c1.35-1.291,3.17-2.346,3.958-3.918
				c2.052-4.098,5.533-4.908,9.508-4.891c3.848,0.018,7.384,0.996,8.885,4.973c0.858,2.273,1.44,5.209,4.324,3.617
				c1.167-0.645,1.614-4.592,0.848-6.373C-194.419,315.061-199.796,313.095-203.783,312.969z M-188.59,342.473
				c-3.635,6.277-8.277,7.59-14.115,5.742c-0.849-0.27-2.12,0.797-3.196,1.246c0.839,0.853,1.527,2.102,2.544,2.49
				c5.414,2.07,10.393,0.803,14.952-2.552c4.677,3.414,9.689,4.606,15.107,2.508c0.964-0.374,1.546-1.731,2.305-2.634
				c-0.954-0.396-2.101-1.354-2.83-1.102C-179.847,350.256-184.514,348.449-188.59,342.473z M-188.531,329.646
				c-2.3,2.458-5.311,4.588-4.976,5.529c0.872,2.455,2.82,5.139,5.076,6.311c2.144,1.115,6.045-3.43,5.177-6.34
				C-183.8,333.316-186.146,332.023-188.531,329.646z"/>
			<path fill-rule="evenodd" clip-rule="evenodd" fill="#FFFFFF" d="M-165.365,449.703c6.271-10.4,6.082-20.495,2.437-30.852
				c-0.339-0.965,0.532-3.037,1.458-3.629c2.189-1.396,4.798-2.118,7.144-3.298c1.253-0.63,2.314-1.644,3.461-2.484
				c-1.443-0.452-3.093-1.589-4.291-1.228c-3.597,1.086-7.017,2.755-10.792,4.314c-4.928-8.139-11.444-16.251-21.124-18.843
				c-9.018-2.415-14.737-6.819-18.798-14.849c-1.647-3.256-4.964-5.667-7.469-9.893c3.862,0,7.725,0.031,11.586-0.017
				c1.472-0.019,4.017,0.198,4.249-0.399c2.487-6.413,8.135-3.606,12.423-4.334c1.507-0.256,4.208,0.67,4.774,1.83
				c1.662,3.409,4.387,2.695,7.123,2.971c7.216,0.725,14.414,1.646,21.604,2.603c3.002,0.399,3.757,2.257,3.763,5.282
				c0.015,7.969,0.145,15.978,1.023,23.882c0.309,2.778,2.323,6.591,4.62,7.669c4.728,2.219,4.423,5.457,2.464,8.376
				c-2.775,4.136-2.858,7.915-0.937,12.134c0.137,0.301,0.274,0.619,0.326,0.943c2.752,17.419-1.9,20.792-15.943,20.291
				C-159.017,450.076-161.769,449.893-165.365,449.703z M-188.883,378.436c0.727-0.018,1.454-0.035,2.181-0.053
				c2.033-3.329,6.152-7.021,5.649-9.908c-0.941-5.404-6.869-0.356-10.226-2.423c-0.541-0.333-3.583,2.117-3.51,2.257
				C-192.98,371.768-190.908,375.09-188.883,378.436z"/>
			<path fill-rule="evenodd" clip-rule="evenodd" fill="#FFFFFF" d="M-209.223,450.314c-6.675-0.415-13.474-0.229-19.961-1.562
				c-2.354-0.484-4.834-4.336-5.679-7.129c-0.962-3.182-1.141-7.292,0.075-10.297c2.58-6.375,1.692-11.947-0.898-17.963
				c-1.209-2.808-0.818-6.304-1.218-10.105c4.69,3.571,8.574,6.53,12.885,9.812c-0.877,13.787,5.126,25.402,15.244,35.287
				C-208.924,449.01-209.074,449.662-209.223,450.314z"/>
			<path fill-rule="evenodd" clip-rule="evenodd" fill="#FFFFFF" d="M-208.88,387.92c-2.654,2.693-4.525,4.588-6.391,6.486
				c-0.863,0.879-1.679,1.807-2.58,2.644c-2.003,1.862-4.046,3.681-6.509,5.913c-6.418-2.586-14.238-17.455-12.388-25.389
				c1.193-5.115,4.741-6.994,10.303-5.062C-218.017,375.437-212.448,381.556-208.88,387.92z"/>
			<path fill-rule="evenodd" clip-rule="evenodd" fill="#FFFFFF" d="M-223.579,301.82c0.91-4.431,1.314-9.381,3-13.847
				c2.133-5.651,7.945-7.681,13.162-4.589c4.156,2.462,7.616,6.099,11.318,9.158C-205.513,295.721-214.139,298.633-223.579,301.82z"
				/>
			<path fill-rule="evenodd" clip-rule="evenodd" fill="#FFFFFF" d="M-153.167,301.33c-8.38-2.805-16.842-5.637-25.18-8.429
				c4.456-7.766,12.547-12.447,18.198-10.151C-154.394,285.09-151.486,293.317-153.167,301.33z"/>
			<path fill-rule="evenodd" clip-rule="evenodd" d="M-186.189,324.914c0.3-1.531,0.375-2.365,0.629-3.141
				c1.761-5.371,7.956-8.92,15.312-8.811c6.977,0.104,12.99,3.819,14.242,9.385c0.365,1.623-0.943,3.621-1.485,5.447
				c-1.27-1.129-3.09-2.018-3.707-3.432c-1.915-4.389-5.417-5.548-9.653-5.508c-4.208,0.041-7.765,1.06-9.399,5.712
				c-0.458,1.304-2.249,2.37-3.671,2.953C-184.302,327.676-185.579,325.641-186.189,324.914z"/>
			<path fill-rule="evenodd" clip-rule="evenodd" d="M-203.783,312.969c3.987,0.126,9.364,2.092,11.947,8.102
				c0.766,1.781,0.319,5.729-0.848,6.373c-2.883,1.592-3.465-1.344-4.324-3.617c-1.501-3.977-5.037-4.955-8.885-4.973
				c-3.976-0.018-7.457,0.793-9.508,4.891c-0.788,1.572-2.608,2.627-3.958,3.918c-0.455-2.165-1.751-4.576-1.204-6.447
				C-219.076,316.137-212.836,312.921-203.783,312.969z"/>
			<path fill-rule="evenodd" clip-rule="evenodd" d="M-188.59,342.473c4.076,5.977,8.743,7.783,14.768,5.699
				c0.729-0.252,1.876,0.705,2.83,1.102c-0.758,0.902-1.341,2.26-2.305,2.634c-5.418,2.099-10.43,0.906-15.107-2.508
				c-4.56,3.354-9.538,4.622-14.952,2.552c-1.017-0.389-1.705-1.638-2.544-2.49c1.076-0.449,2.347-1.516,3.196-1.246
				C-196.867,350.062-192.225,348.75-188.59,342.473z"/>
			<path fill-rule="evenodd" clip-rule="evenodd" d="M-188.531,329.646c2.385,2.377,4.731,3.67,5.277,5.5
				c0.868,2.91-3.033,7.455-5.177,6.34c-2.256-1.172-4.205-3.855-5.076-6.311C-193.842,334.234-190.831,332.104-188.531,329.646z"/>
			<path fill-rule="evenodd" clip-rule="evenodd" d="M-188.883,378.436c-2.025-3.346-4.097-6.668-5.905-10.127
				c-0.073-0.14,2.97-2.59,3.51-2.257c3.356,2.066,9.284-2.981,10.226,2.423c0.503,2.887-3.616,6.579-5.649,9.908
				C-187.429,378.4-188.156,378.418-188.883,378.436z"/>
		</g>
	</g>
</g>
<g id="L4OFRc_1_">
	<g>
		<path fill-rule="evenodd" clip-rule="evenodd" fill="#E05F3F" d="M955.861,266.537c6.838,5.789,9.955,14.816,9.578,24.866
			c-0.938,24.969-21.953,47.346-45.037,47.394c-8.032,0.018-15.25-2.678-20.439-9.192c-2.128-2.671-3.998-3.144-7.088-1.431
			c-15.391,8.531-32.066,11.654-49.476,10.525c-13.16-0.854-25.746-4.13-37.429-10.591c-1.34-0.741-4.479-0.457-5.388,0.578
			c-14.044,15.997-33.667,10.904-47.054,0.512c-11.623-9.023-18.123-21.182-19.494-35.52c-1.011-10.585,1.887-20.593,10.477-28.033
			c-9.584-6.329-11.678-17.058-8.508-27.36c6.158-20.015,20-33.49,37.617-43.619c5.486-3.154,11.186-5.939,16.803-8.901
			c-14.878-20.608-16.676-41.9-4-63.915c-3.295-3.547-6.988-6.645-9.582-10.485c-7.686-11.372-6.096-26.012,4.375-35.1
			c10.098-8.763,23.809-10.718,35.359-0.597c3.838,3.362,6.441,8.349,8.92,12.963c1.385,2.576,2.032,3.727,5.353,2.871
			c12.298-3.17,24.806-2.943,37.099-0.174c3.772,0.85,4.797,0.17,5.928-3.142c4.365-12.777,14.253-18.829,26.89-19.054
			c12.323-0.22,24.397,10.973,25.94,23.212c1.463,11.585-2.65,20.405-12.01,27.056c-0.664,0.471-1.156,1.184-1.958,2.027
			c12.796,22.027,11.241,43.374-3.836,64.387c4.927,2.564,9.882,5.186,14.874,7.734c13.639,6.966,24.98,16.883,33.121,29.593
			c5.766,9.001,10.516,19.389,6.578,30.713C961.943,258.258,958.629,262.04,955.861,266.537z M925.963,259.955
			c5.395,0,10.541-0.278,15.646,0.073c5.742,0.396,12.691-2.058,13.762-5.821c1.998-7.018,1.652-14.133-1.748-20.574
			c-10.529-19.947-27.834-32.013-48.203-40.24c-1.208-0.488-3.382-0.125-4.406,0.705c-17.219,13.969-36.64,19.926-58.872,17.926
			c-16.413-1.477-30.586-7.447-43.361-17.543c-1.302-1.029-4.147-1.354-5.651-0.657c-6.798,3.147-13.879,6.069-19.923,10.382
			c-14.22,10.148-27.366,21.268-29.952,40.398c-1.346,9.949,4.422,16.4,14.582,15.441c5.072-0.48,10.229-0.084,15.734-0.084
			c2.02-16.965,9.617-32.031,22.906-44.02c1.203-1.085,3.902-0.512,5.906-0.709c-0.193,1.99,0.391,4.775-0.704,5.847
			c-10.327,10.11-16.415,22.479-19.673,36.297c-0.617,2.618-2.651,5.743,1.409,8.554c18.521,12.822,27.044,30.209,22.827,52.969
			c24.334,17.035,67.422,15.383,87.351-0.74c-0.587-2.385-1.221-4.752-1.729-7.145c-0.169-0.797-0.037-1.66-0.01-2.492
			c0.596-18.227,8.83-32.195,23.633-42.547c1.121-0.783,2.889-2.223,2.723-3.016c-1.297-6.192-2.163-12.682-4.758-18.35
			c-4.059-8.868-8.859-17.482-16.361-24.215c-0.879-0.789-0.875-4.07-0.025-4.881c0.973-0.929,4.006-1.171,4.992-0.342
			c3.146,2.647,5.896,5.816,8.555,8.987C919.498,234.756,923.568,247.449,925.963,259.955z M849.602,205.32
			c2.244-0.436,4.477-1.175,6.734-1.256c12.835-0.459,24.309-4.822,34.633-12.193c14.369-10.262,22.422-24.244,22.641-42.019
			c0.125-10.103-4.041-19.082-9.719-27.351c-2.326-3.389-1.561-5.825,2.1-7.443c10.381-4.59,14.32-11.518,12.748-22.418
			c-1.461-10.125-13.086-17.732-23.033-15.072c-9.927,2.655-14.659,8.496-15.111,18.65c-0.202,4.539-2.34,6.084-6.613,4.759
			c-16.119-5.001-32.24-5.136-48.377-0.074c-4.48,1.405-6.679-0.247-6.883-5.024c-0.069-1.639-0.032-3.342-0.473-4.895
			c-2.36-8.312-10.699-14.338-19.3-14.098c-7.481,0.21-16.886,7.631-18.29,14.373c-2.217,10.646,2.779,19.295,10.54,23.005
			c6.837,3.269,7.101,4.317,2.657,10.855c-5.604,8.245-8.461,17.515-8.068,27.296c0.51,12.73,5.775,23.893,14.779,32.89
			C814.02,198.749,830.896,204.183,849.602,205.32z M741.645,292.27c2.774,17.785,11.311,30.093,27.156,36.762
			c10.672,4.491,23.166,1.863,28.608-10.223c3.972-8.82,2.562-17.463-0.838-25.729c-4.195-10.199-11.083-18.293-21.905-23.049
			c0.379,3.649,1.013,6.734,0.875,9.783c-0.061,1.351-1.764,3.758-2.575,3.697c-1.491-0.108-3.766-1.428-4.142-2.704
			c-1.199-4.081-1.678-8.373-2.533-13.128c-9.068-3.99-21.432,4.258-23.375,16.115c3.762,2.359,7.558,4.341,10.812,6.987
			c1.214,0.987,1.165,3.528,1.692,5.36c-1.728,0.289-3.676,1.224-5.137,0.727C747.553,295.939,745.105,294.179,741.645,292.27z
			 M956.688,283.984c-3.609-13.068-15.754-20.631-23.443-16.157c-0.984,5.005-1.498,9.165-2.748,13.09
			c-0.402,1.257-2.756,1.892-4.217,2.811c-0.852-1.354-2.363-2.682-2.422-4.069c-0.127-3.064,0.476-6.16,0.82-9.648
			c-1.805,0.836-3.447,1.297-4.734,2.242c-10.229,7.513-17.303,16.933-19.562,29.889c-1.701,9.75,0.127,18.117,7.588,24.516
			c6.582,5.644,14.434,5.599,22.213,2.478c16.262-6.523,24.77-18.972,27.535-36.899c-3.041,1.791-5.242,3.612-7.766,4.396
			c-1.82,0.566-4.07-0.246-6.129-0.443c0.672-2.009,0.748-4.768,2.137-5.873C949.088,287.827,952.867,286.16,956.688,283.984z"/>
		<path fill-rule="evenodd" clip-rule="evenodd" fill="#E05F3F" d="M793.355,107.773c-9.027-5.972-6.419-17.157,0.447-21.375
			c3.834-2.355,11.917-1.942,14.838,1.29c1.051,1.163,1.731,4.236,1.012,5.053c-1.073,1.216-3.873,2.082-5.339,1.523
			c-2.717-1.036-5.519-3.014-7.364,0.147c-0.98,1.678-0.176,4.682,0.415,6.932C798.348,105.084,797,107.006,793.355,107.773z"/>
	</g>
</g>
<rect x="-495" y="49" fill-rule="evenodd" clip-rule="evenodd" fill="none" stroke="#E05F3F" stroke-width="22.5" stroke-miterlimit="10" width="124" height="150.924"/>
<rect x="-609" y="-127.118" fill-rule="evenodd" clip-rule="evenodd" fill="none" stroke="#FFFFFF" stroke-width="22.5" stroke-miterlimit="10" width="124" height="150.924"/>
<path fill="#E05F3F" d="M-302.998-49.11h65.178v12.314c0,0,0.422,10.455,13.924,3.287c13.502-7.167,52.731-28.682,61.166-32.904
	c8.435-4.212,13.08-5.57-4.212-13.754c-17.303-8.184-58.483-32.643-62.147-33.499c-3.664-0.833-7.042-2.1-7.042,4.223
	s0,15.191,0,15.191h-66.867V-49.11z"/>
<path fill-rule="evenodd" clip-rule="evenodd" fill="#E05F3F" d="M879.713,153.811c-11.945-15.613-32.364-18.949-49.252-9.706
	c-15.941,8.726-20.82,27.304-10.59,41.835c6.965,9.891,17.367,14.191,31.058,14.032c5.69,0.794,12.04-1.663,18.276-4.966
	C885.527,186.358,889.391,166.459,879.713,153.811z M876.409,174.658c-2.595,9.532-13.19,17.221-23.172,17.438
	c-8.06,0.174-15.435-0.802-22.308-5.885c-11.564-8.553-11.369-25.207,1.324-33.401c0.672,7.008,4.137,11.562,10.266,14.337
	c0.015,0.003,9.128,1.728,13.265,0c0.593-0.248,1.262-0.477,1.965-0.688c5.783-2.288,8.62-6.841,9.164-13.188
	C874.277,155.207,878.535,166.852,876.409,174.658z"/>
<g id="zclClD.tif">
	<g>
		<path fill="#E05F3F" d="M853.648,226.72c2.045,0,4.09,0,6.135,0c-0.336,3.658-0.672,7.316-1.004,10.935
			c3.111,1.146,6.147,2.263,9.184,3.38c0,0.682,0,1.363,0,2.045c-0.939,2.711-1.879,5.422-2.82,8.136
			c-2.721-1.02-5.307-1.988-8.348-3.128c-1.628,10.868-3.171,21.175-4.869,32.512c5.138-1.513,9.395-2.767,13.787-4.06
			c0.44,2.091,0.824,4.529,1.486,6.891c0.709,2.523-0.268,3.946-2.607,4.516c-4.686,1.142-9.396,2.17-14.502,3.338
			c-0.383,3.709-0.798,7.744-1.213,11.779c-2.273,0-4.544,0-6.816,0c0.623-4.217,1.245-8.437,1.884-12.758
			c-1.011-0.327-1.854-0.614-2.706-0.874c-8.678-2.648-13.854-8.565-16.113-17.221c-0.225-0.859-0.523-1.699-0.787-2.547
			c0-3.636,0-7.271,0-10.906c0.254-0.728,0.562-1.439,0.753-2.183c2.541-9.888,8.647-16.252,18.644-18.604
			c2.717-0.64,5.557-0.761,8.476-1.138C852.696,233.411,853.173,230.065,853.648,226.72z M850.426,248.009
			c-6.834-0.301-12.023,4.182-13.059,11.203c-1.265,8.573,1.141,17.141,8.436,19.119
			C847.334,268.292,848.858,258.288,850.426,248.009z"/>
	</g>
</g>
<circle fill-rule="evenodd" clip-rule="evenodd" fill="#E05F3F" cx="815.338" cy="133.608" r="5.388"/>
<circle fill-rule="evenodd" clip-rule="evenodd" fill="#E05F3F" cx="884.951" cy="133.608" r="5.388"/>
<g id="_x31_T0QvB.tif">
	<g>
		<path fill-rule="evenodd" clip-rule="evenodd" fill="#E05F3F" d="M139.107,340.504c-6.785,4.072-13.858,4.212-21.13,3.892
			c-2.301-0.103-5.166,0.807-6.927,2.27c-6.723,5.586-14.012,8.692-22.587,5.569c-9.097-3.313-14.607-10.295-17.061-19.49
			c-1.471-5.513,1.187-9.506,6.569-11.098c4.922-1.456,8.897,0.633,11.139,5.795c0.726,1.671,1.18,3.788,2.467,4.798
			c1.385,1.088,3.603,1.117,5.457,1.607c-0.099-1.554,0.331-3.424-0.38-4.612c-5.656-9.462-9.269-19.589-9.816-30.603
			c-0.427-8.598,1.77-16.405,9.992-20.825c8.351-4.49,16.727-3.812,24.495,1.581c5.727,3.977,8.061,10.038,8.825,16.688
			c0.972,8.458-0.797,16.566-3.725,24.466c-0.559,1.506-1.088,3.022-1.677,4.662c4.855-0.019,8.314-3.089,9.556-9.103
			c1.546-7.484,2.763-15.053,3.777-22.631c5.578-41.645,26.208-74.511,58.546-100.52c14.404-11.585,30.577-20.06,47.919-26.363
			c0.906-0.33,1.757-0.81,3.124-1.448c-14.696-18-20.442-38.228-15.994-60.811c3.473-17.627,12.512-32.137,26.528-43.433
			c26.922-21.695,65.486-20.82,92.012,1.919c24.647,21.128,37.283,60.859,11.228,98.854c1.634,0.583,3.089,1.186,4.592,1.625
			c15.66,4.568,30.106,11.631,43.195,21.35c2.55,1.893,4.528,2.025,7.138,0.417c8.645-5.328,17.199-10.845,26.148-15.612
			c4.11-2.189,9.007-3.631,13.643-3.932c6.569-0.427,11.166,4.305,10.935,10.893c-0.167,4.733-1.211,9.567-2.666,14.098
			c-3.56,11.082-7.754,21.961-11.274,33.055c-0.674,2.124-0.167,5.325,1.047,7.233c8.19,12.869,14.637,26.514,18.933,41.126
			c0.801,2.725,2.065,3.821,4.66,4.174c5.936,0.806,11.901,1.509,17.767,2.692c11.471,2.312,16.142,8.195,15.681,19.834
			c-0.6,15.142-1.439,30.273-2.232,45.406c-0.719,13.696-6.046,20.923-19.76,21.719c-13.938,0.809-21.972,6.14-27.215,19.33
			c-5.227,13.151-14.738,24.122-25.021,33.994c-3.069,2.947-4.068,5.948-4.022,10.049c0.188,16.828,0.102,21.831,0.074,38.662
			c-0.023,14.133-7.574,22.216-21.636,22.447c-17.159,0.283-34.328,0.244-51.489,0.049c-11.501-0.13-19.725-8.689-20.182-20.562
			c-0.178-4.629-0.029-9.271-0.029-14.14c-11.876,0.577-23.289,1.719-34.68,1.521c-11.263-0.195-22.503-1.743-34.782-2.785
			c0,2.957,0.167,6.181-0.041,9.381c-0.289,4.463-0.17,9.118-1.449,13.318c-2.798,9.188-10.149,13.023-19.161,13.178
			c-17.324,0.297-34.665,0.381-51.985-0.034c-12.756-0.305-19.934-7.756-20.204-20.689c-0.445-21.32-0.384-30.82-0.677-52.145
			c-0.027-1.997-0.474-4.495-1.708-5.893c-17.694-20.038-29.5-42.99-34.915-69.201C140.035,341.786,139.652,341.405,139.107,340.504
			z M445.549,189.544c-1.918,0.904-2.814,1.254-3.64,1.728c-7.211,4.134-14.289,8.516-21.645,12.372
			c-6.759,3.544-13.088,2.964-19.488-2.002c-15.341-11.902-32.598-19.985-51.771-23.598c-1.894-0.356-4.393-0.114-5.973,0.873
			c-24.525,15.308-49.455,15.786-75.019,2.719c-2.079-1.063-5.149-1.36-7.399-0.73c-16.487,4.617-31.783,11.907-45.805,21.739
			c-69.469,48.713-79.29,138.819-23.825,198.389c3.574,3.838,4.858,8.102,4.839,13.155c-0.081,21.496,0.028,31.165-0.135,52.661
			c-0.027,3.619,0.823,5.001,4.691,4.953c15.496-0.191,30.996-0.174,46.492-0.01c3.653,0.038,5.021-1.007,4.898-4.796
			c-0.251-7.824-0.185-3.834-0.067-11.665c0.128-8.572,5.217-16.33,13.583-14.228c19.389,4.874,39.027,6.79,58.951,4.652
			c7.271-0.78,14.485-2.07,21.731-3.088c8.009-1.124,12.209,6.373,12.27,14.262c0.056,7.165,0.174,2.507-0.046,9.666
			c-0.119,3.873,1.128,5.259,5.151,5.206c15.328-0.203,30.664-0.229,45.991,0.014c4.378,0.069,5.224-1.596,5.187-5.543
			c-0.175-18.83-0.281-25.836,0.091-44.659c0.068-3.476,1.502-7.932,3.929-10.188c14.762-13.727,26.312-29.526,33.814-48.283
			c2.593-6.484,7.492-10.522,14.376-11.893c6.52-1.298,13.123-2.213,19.586-3.737c1.582-0.373,3.859-2.392,3.953-3.779
			c0.972-14.45,1.526-28.927,2.29-43.392c0.147-2.8-1.061-3.825-3.695-4.107c-4.963-0.532-9.914-1.204-14.845-1.983
			c-9.472-1.497-16.315-5.84-18.693-15.999c-3.14-13.42-8.763-25.977-16.972-36.971c-5.591-7.487-6.071-14.688-3.06-22.906
			C438.666,209.184,441.865,199.931,445.549,189.544z M357.41,118.037c-0.062-29.856-24.698-54.468-54.45-54.396
			c-30.061,0.073-54.104,24.366-54.023,54.583c0.08,29.754,24.501,54.228,54.017,54.133
			C332.913,172.26,357.471,147.765,357.41,118.037z M108.056,311.052c0.871-0.074,1.741-0.149,2.612-0.225
			c0.148-4.808,0.487-9.624,0.28-14.417c-0.041-0.938-2.199-1.786-3.381-2.675c-0.718,1.136-2.162,2.365-2.031,3.393
			C106.133,301.801,107.174,306.416,108.056,311.052z"/>
		<path fill-rule="evenodd" clip-rule="evenodd" fill="#E05F3F" d="M303.474,232.191c-11.66-0.007-23.32,0.034-34.979-0.021
			c-8.612-0.041-14.213-4.825-14.229-12c-0.017-7.335,5.392-12.246,14.007-12.278c23.819-0.091,47.64-0.101,71.458-0.006
			c8.155,0.032,13.565,5.159,13.469,12.268c-0.098,7.113-5.552,11.974-13.747,12.024
			C327.46,232.254,315.467,232.198,303.474,232.191z"/>
		<path fill-rule="evenodd" clip-rule="evenodd" fill="#E05F3F" d="M413.37,284.518c-4.647-0.092-7.536-3.239-7.426-8.091
			c0.106-4.687,3.282-7.958,7.73-7.963c4.79-0.005,7.756,3.274,7.647,8.456C421.224,281.651,418.127,284.61,413.37,284.518z"/>
		<path fill-rule="evenodd" clip-rule="evenodd" fill="#E05F3F" d="M311.48,157.72c-1.036,7.782-1.036,7.782-9.191,7.646
			c-5.316-0.089-5.373-0.156-6.069-6.974c-4.528-1.79-9.224-3.064-13.32-5.394c-7.145-4.063-10.896-10.455-10.946-18.894
			c-0.021-3.603,0.912-5.836,5.069-5.362c1.479,0.168,2.994,0.039,4.492,0.021c2.972-0.035,4.489,1.148,4.756,4.382
			c0.669,8.119,4.614,11.939,12.668,12.425c3.478,0.209,7.077,0.441,10.448-0.219c3.146-0.616,6.966-1.644,8.841-3.875
			c2.067-2.459,3.154-6.562,2.915-9.821c-0.135-1.83-3.567-4.213-5.941-4.928c-6.189-1.865-12.63-2.886-18.941-4.369
			c-3.392-0.796-6.803-1.633-10.063-2.834c-6.555-2.415-12.822-5.486-13.932-13.409c-1.338-9.549,0.938-17.942,9.405-23.617
			c2.456-1.646,5.212-3.015,8.02-3.925c3.704-1.201,8.166-1.1,7.129-7.146c-0.121-0.708,2.149-2.289,3.53-2.671
			c1.7-0.47,3.637-0.016,5.461-0.122c3.522-0.206,5.462,1.217,5.162,4.902c-0.219,2.692,0.964,3.564,3.565,4.214
			c12.839,3.211,19.047,10.673,18.788,21.67c-0.079,3.361-1.25,4.714-4.719,4.754c-7.668,0.089-7.404,0.138-10.085-7.283
			c-0.92-2.546-3.365-6.214-5.373-6.389c-6.787-0.592-13.827-0.589-20.5,0.649c-4.436,0.823-6.827,5.264-6.434,10.12
			c0.377,4.665,4.194,6.118,7.951,7.115c8.035,2.133,16.174,3.888,24.183,6.113c3.646,1.013,7.267,2.442,10.568,4.277
			c4.698,2.61,6.948,7.034,7.217,12.376c0.669,13.322-6.508,22.694-19.51,25.551C315.013,157.059,313.388,157.346,311.48,157.72z"/>
	</g>
</g>
</svg>
