<?xml version="1.0" encoding="utf-8"?>
<!-- Generator: Adobe Illustrator 16.0.0, SVG Export Plug-In . SVG Version: 6.00 Build 0)  -->
<!DOCTYPE svg PUBLIC "-//W3C//DTD SVG 1.1//EN" "http://www.w3.org/Graphics/SVG/1.1/DTD/svg11.dtd">
<svg version="1.1" id="Layer_1" xmlns="http://www.w3.org/2000/svg" xmlns:xlink="http://www.w3.org/1999/xlink" x="0px" y="0px"
	 width="600px" height="600px" viewBox="0 0 600 600" enable-background="new 0 0 600 600" xml:space="preserve">
<rect x="-1665.139" y="91" fill-rule="evenodd" clip-rule="evenodd" fill="#5D5E5E" width="956" height="734"/>
<g id="SfsWyK.tif">
	<g>
		<path fill="#E05F3F" d="M692.757,1005.788c-1.254,0-2.508,0-3.761,0c-0.242-0.031-0.484-0.087-0.727-0.091
			c-5.978-0.074-11.944-0.359-17.873-1.132c-4.694-0.611-9.393-1.244-14.048-2.088c-7.452-1.351-14.769-3.285-21.966-5.651
			c-10.252-3.37-20.107-7.653-29.553-12.882c-1.246-0.691-2.236-1.594-3.027-2.772c-4.049-6.033-7.45-12.41-10.189-19.138
			c-5.215-12.806-7.799-26.167-8.287-39.946c-0.332-9.388,0.129-18.735,1.842-27.999c1.369-7.407,3.512-14.577,6.51-21.484
			c4.412-10.169,10.51-19.247,17.922-27.459c1.688-1.87,3.795-2.645,6.292-2.018c1.21,0.304,2.411,0.668,3.581,1.1
			c9.83,3.614,18.451,9.203,26.182,16.205c5.621,5.092,10.498,10.812,14.375,17.357c0.104,0.178,0.455,0.324,0.673,0.303
			c4.539-0.439,9.068-1.002,13.614-1.342c5.559-0.416,11.132-0.555,16.708-0.34c0.255,0.01,0.51,0.002,0.87,0.002
			c-0.199-0.313-0.338-0.511-0.456-0.72c-1.286-2.274-2.693-4.49-3.826-6.839c-3.038-6.297-4.778-12.959-5.358-19.938
			c-0.453-5.436-0.157-10.82,0.898-16.158c1.205-6.091,3.336-11.854,6.444-17.238c5.835-10.111,13.964-17.78,24.498-22.844
			c5.915-2.844,12.158-4.537,18.712-5.044c0.979-0.075,1.955-0.167,2.934-0.252c1.029,0,2.059,0,3.089,0
			c0.331,0.037,0.661,0.093,0.994,0.107c5.01,0.213,9.897,1.108,14.642,2.724c11.719,3.991,21.042,11.16,28.095,21.309
			c2.704,3.893,4.849,8.078,6.488,12.523c0.135,0.367,0.247,0.602,0.737,0.537c0.995-0.129,2.001-0.24,3.004-0.242
			c9.38-0.018,18.759-0.014,28.139-0.008c1.994,0.002,3.6,1.089,4.103,3.014c0.45,1.722,0.681,3.502,0.955,5.265
			c0.152,0.989,0.195,1.995,0.287,2.993c0,0.85,0,1.701,0,2.552c-0.044,0.33-0.092,0.659-0.13,0.989
			c-0.195,1.686-0.282,3.393-0.599,5.055c-1.675,8.771-5.663,16.311-12.354,22.273c-8.374,7.467-18.17,10.592-29.352,9.164
			c-0.399-0.051-0.644,0.041-0.885,0.391c-0.797,1.162-1.623,2.303-2.476,3.424c-0.238,0.312-0.178,0.526-0.041,0.833
			c1.077,2.403,2.216,4.784,3.185,7.229c4.407,11.121,6.679,22.68,6.897,34.636c0.105,5.735-0.3,11.438-1.172,17.113
			c-1.037,6.756-2.748,13.331-5.15,19.722c-3.957,10.53-9.544,20.125-16.685,28.819c-0.802,0.975-1.755,1.71-2.893,2.225
			c-17.212,7.781-35.233,12.59-53.994,14.651c-5.494,0.604-11.008,0.953-16.538,1.01
			C693.644,1005.693,693.2,1005.754,692.757,1005.788z M690.871,993.383c4.356-0.194,7.515-0.26,10.659-0.494
			c3.968-0.295,7.948-0.559,11.878-1.141c5.141-0.762,10.268-1.675,15.345-2.78c10.098-2.198,19.852-5.501,29.303-9.684
			c0.255-0.112,0.515-0.289,0.688-0.505c5.332-6.651,9.621-13.92,12.849-21.811c3.182-7.776,5.19-15.853,6.029-24.21
			c0.512-5.106,0.587-10.224,0.192-15.351c-0.326-4.218-0.925-8.39-1.849-12.516c-1.774-7.933-4.628-15.46-8.506-22.604
			c-1.555-2.864-1.142-5.406,0.969-7.904c1.698-2.012,3.394-4.062,4.79-6.285c6.291-10.021,8.286-20.938,6.118-32.525
			c-1.97-10.529-7.091-19.355-15.447-26.095c-10.984-8.858-23.492-11.681-37.158-8.175c-11.514,2.953-20.196,9.938-26.152,20.176
			c-5.627,9.672-7.255,20.109-5.264,31.104c1.043,5.758,3.199,11.09,6.375,16.004c2.511,3.883,5.58,7.264,9.129,10.225
			c2.539,2.118,3.094,5.56,1.367,8.199c-1.526,2.331-3.757,3.034-6.437,2.847c-5.42-0.378-10.843-0.802-16.271-0.997
			c-6.76-0.241-13.513,0.108-20.237,0.858c-3.574,0.398-7.153,0.777-10.715,1.276c-3.632,0.509-5.925-0.559-7.596-3.824
			c-1.429-2.793-3.051-5.464-4.934-7.969c-3.719-4.949-8.066-9.283-12.938-13.096c-4.864-3.805-10.087-7.002-15.796-9.391
			c-0.695-0.291-1.064-0.189-1.543,0.395c-8.865,10.819-14.875,23.017-17.789,36.714c-1.127,5.299-1.768,10.662-2.047,16.072
			c-0.361,7.032-0.198,14.051,0.604,21.044c0.506,4.416,1.299,8.785,2.37,13.104c2.541,10.251,6.6,19.845,12.36,28.704
			c0.277,0.425,0.703,0.816,1.148,1.059c11.235,6.141,23.084,10.742,35.463,13.978c9.418,2.462,18.975,4.157,28.689,4.842
			C681.693,992.992,686.882,993.178,690.871,993.383z M791.51,832.71c2.253,12.102,1.032,23.707-3.882,34.915
			c19.281,0.835,32.697-17.858,29.932-34.915C808.903,832.71,800.251,832.71,791.51,832.71z"/>
		<path fill-rule="evenodd" clip-rule="evenodd" fill="#E05F3F" d="M738.09,830.284c0.044-5.592,4.329-10.334,9.915-11.094
			c5.41-0.735,10.579,2.288,12.437,7.053c2.441,6.264-1.196,13.196-7.766,14.847c-5.924,1.487-11.87-1.559-13.911-7.138
			c-0.19-0.521-0.354-1.062-0.448-1.607C738.196,831.665,738.162,830.972,738.09,830.284z"/>
	</g>
</g>
<path fill-rule="evenodd" clip-rule="evenodd" fill="none" stroke="#E05F3F" stroke-width="22.5" stroke-miterlimit="10" d="
	M563.098,286.544c0,145.156-117.643,262.818-262.758,262.818c-145.125,0-262.758-117.662-262.758-262.818
	c0-145.095,117.633-262.738,262.758-262.738C445.455,23.806,563.098,141.45,563.098,286.544z"/>
<g id="gSld4r.tif">
	<g>
		<g>
			<path d="M-245,384c0-2.334,0-4.666,0-7c2.256-7.893,6.747-13.227,16.061-13.146c0-2.744,0.864-5.556-0.138-7.289
				c-7.509-12.986-5.894-26.428-2.873-40.111c0.864-3.912,1.658-8.069,1.264-11.992c-1.512-15.055,3.212-24.644,15.686-30.461
				c2,0,4,0,6,0c9.147,3.121,15.56,9.671,21.231,17.795c5.624-8.115,12.096-14.291,20.769-17.795c2.333,0,4.667,0,7,0
				c9.51,3.664,14.121,10.912,14.877,20.773c0.291,3.792,0.631,7.745-0.101,11.416c-1.5,7.516,3.975,13.104,4.02,19.059
				c2.449-1.947,4.704-5.04,7.31-5.371c1.851-0.236,4.154,3.28,6.3,5.068c0.889,0.741,1.979,1.953,2.823,1.836
				c0.83-0.115,1.356-1.762,2.207-2.525c1.856-1.666,3.856-4.463,5.753-4.428s3.81,2.889,5.574,4.648
				c0.627,0.627,0.837,1.67,1.238,2.523c0,19.334,0,38.666,0,58c-0.696,2.35-1.44,4.686-2.079,7.051
				c-1.62,5.995-5.508,9.807-11.379,11.473c-1.398,0.397-3.434,0.345-4.549-0.418c-2.585-1.766-4.788-4.093-7.261-6.297
				c1.194-0.102,2.776-0.287,4.365-0.362c8.955-0.423,10.856-1.592,12.103-10.517c0.96-6.873,0.714-13.931,0.795-20.908
				c0.112-9.624,0.028-19.25,0.028-29.351c-5.311,0-10.046,0-15.057,0c0,6.644,0.244,12.976-0.069,19.279
				c-0.307,6.18,1.733,12.771-2.255,18.745c-1.054-2.926-1.302-6.006-2.966-7.659c-2.348-2.333-2.625-4.696-2.557-7.569
				c0.103-4.283,0.026-8.57,0.026-13.074c-1.956,4.062-3.568,7.639-5.386,11.107c-1.241,2.368-0.04,8.617,2.399,9.705
				c3.322,1.482,3.988,3.858,3.894,7.212c-0.215,7.658-0.22,15.331,0.023,22.988c0.069,2.179-0.38,5.598,3.42,5.512
				c4.729-0.106,5.851,2.793,5.428,6.466c-0.628,5.467-2.388,10.854-2.555,16.31c-0.17,5.56,1.582,11.175,1.453,16.741
				c-0.187,8.064-5.188,13.761-13.102,15.51c-8.05,1.778-16.153,1.826-24.145-0.781c-1.276-0.416-2.985-0.578-4.155-0.072
				c-8.408,3.625-16.537,2.65-24.657-0.917c-1.232-0.541-3.122-1.09-4.068-0.538c-6.918,4.031-14.46,3.509-21.922,3.263
				c-11.777-0.389-18.538-7.099-18.75-18.848c-0.08-4.434,0.96-8.88,1.335-13.333c0.159-1.885,0.431-4.004-0.225-5.673
				c-3.238-8.239-2.475-16.628-1.814-25.14C-243.402,391.325-244.518,387.639-245,384z M-187.748,357.061
				c0.02,0.434,0.04,0.868,0.059,1.303c9.243-0.775,18.548-1.133,27.708-2.476c5.898-0.864,9.991-4.983,10.356-11.202
				c0.407-6.922,0.612-13.964-0.191-20.826c-1.228-10.491-7.859-16.926-17.793-19.923c-11.208-3.381-22.688-3.622-34.061-1.426
				c-17.429,3.365-24.3,11.813-24.873,29.548c-0.086,2.656,0.042,5.326,0.223,7.98c0.763,11.18,4.549,15.742,15.66,16.875
				C-203.096,357.685-195.39,357.061-187.748,357.061z M-165.365,449.703c3.596,0.189,6.348,0.373,9.104,0.471
				c14.043,0.501,18.695-2.872,15.943-20.291c-0.051-0.324-0.188-0.643-0.326-0.943c-1.922-4.219-1.838-7.998,0.937-12.134
				c1.959-2.919,2.264-6.157-2.464-8.376c-2.297-1.078-4.311-4.891-4.62-7.669c-0.878-7.904-1.008-15.913-1.023-23.882
				c-0.006-3.025-0.761-4.883-3.763-5.282c-7.19-0.956-14.389-1.878-21.604-2.603c-2.736-0.275-5.46,0.438-7.123-2.971
				c-0.566-1.16-3.267-2.086-4.774-1.83c-4.289,0.728-9.937-2.079-12.423,4.334c-0.232,0.598-2.777,0.381-4.249,0.399
				c-3.862,0.048-7.724,0.017-11.586,0.017c2.504,4.226,5.822,6.637,7.469,9.893c4.061,8.029,9.78,12.434,18.798,14.849
				c9.68,2.592,16.196,10.704,21.124,18.843c3.774-1.56,7.195-3.229,10.792-4.314c1.198-0.361,2.847,0.775,4.291,1.228
				c-1.147,0.841-2.208,1.854-3.461,2.484c-2.346,1.18-4.955,1.901-7.144,3.298c-0.926,0.592-1.797,2.664-1.458,3.629
				C-159.284,429.208-159.095,439.303-165.365,449.703z M-209.223,450.314c0.149-0.652,0.299-1.305,0.448-1.957
				c-10.117-9.885-16.121-21.5-15.244-35.287c-4.311-3.282-8.195-6.241-12.885-9.812c0.399,3.802,0.009,7.298,1.218,10.105
				c2.59,6.016,3.478,11.588,0.898,17.963c-1.216,3.005-1.037,7.115-0.075,10.297c0.845,2.793,3.325,6.645,5.679,7.129
				C-222.697,450.086-215.898,449.899-209.223,450.314z M-208.88,387.92c-3.568-6.364-9.137-12.483-17.564-15.408
				c-5.562-1.932-9.11-0.053-10.303,5.062c-1.851,7.934,5.969,22.803,12.388,25.389c2.462-2.232,4.505-4.051,6.509-5.913
				c0.9-0.837,1.717-1.765,2.58-2.644C-213.406,392.508-211.535,390.613-208.88,387.92z M-223.579,301.82
				c9.44-3.188,18.066-6.1,27.48-9.277c-3.702-3.06-7.162-6.696-11.318-9.158c-5.216-3.092-11.028-1.062-13.162,4.589
				C-222.265,292.439-222.669,297.39-223.579,301.82z M-153.167,301.33c1.682-8.013-1.226-16.24-6.982-18.58
				c-5.65-2.296-13.742,2.386-18.198,10.151C-170.009,295.693-161.548,298.525-153.167,301.33z"/>
			<path fill-rule="evenodd" clip-rule="evenodd" fill="#FFFFFF" d="M-245,384c0.482,3.639,1.598,7.325,1.32,10.904
				c-0.661,8.512-1.424,16.9,1.814,25.14c0.656,1.669,0.383,3.788,0.225,5.673c-0.375,4.453-1.416,8.899-1.335,13.333
				c0.212,11.749,6.973,18.459,18.75,18.848c7.462,0.246,15.004,0.769,21.922-3.263c0.947-0.552,2.836-0.003,4.068,0.538
				c8.12,3.567,16.249,4.542,24.657,0.917c1.17-0.506,2.879-0.344,4.155,0.072c7.992,2.607,16.095,2.56,24.145,0.781
				c7.913-1.749,12.915-7.445,13.102-15.51c0.129-5.566-1.623-11.182-1.453-16.741c0.167-5.456,1.926-10.843,2.555-16.31
				c0.422-3.673-0.699-6.572-5.428-6.466c-3.801,0.086-3.351-3.333-3.42-5.512c-0.244-7.657-0.238-15.33-0.023-22.988
				c0.094-3.354-0.572-5.729-3.894-7.212c-2.439-1.088-3.64-7.337-2.399-9.705c1.818-3.469,3.43-7.045,5.386-11.107
				c0,4.504,0.076,8.791-0.026,13.074c-0.069,2.873,0.208,5.236,2.557,7.569c1.664,1.653,1.912,4.733,2.966,7.659
				c3.988-5.975,1.949-12.565,2.255-18.745c0.313-6.304,0.069-12.636,0.069-19.279c5.01,0,9.746,0,15.057,0
				c0,10.101,0.084,19.727-0.028,29.351c-0.082,6.978,0.165,14.035-0.795,20.908c-1.246,8.925-3.148,10.094-12.103,10.517
				c-1.588,0.075-3.171,0.261-4.365,0.362c2.474,2.204,4.676,4.531,7.261,6.297c1.116,0.763,3.151,0.815,4.549,0.418
				c5.871-1.666,9.759-5.478,11.379-11.473c0.639-2.365,1.382-4.701,2.079-7.051c0,24.666,0,49.334,0,74c-45,0-90,0-135,0
				C-245,434-245,409-245,384z"/>
			<path fill-rule="evenodd" clip-rule="evenodd" fill="#FFFFFF" d="M-110,327c-0.401-0.854-0.611-1.896-1.238-2.523
				c-1.764-1.76-3.676-4.613-5.574-4.648s-3.897,2.762-5.753,4.428c-0.85,0.764-1.376,2.41-2.207,2.525
				c-0.844,0.117-1.934-1.095-2.823-1.836c-2.146-1.788-4.449-5.305-6.3-5.068c-2.606,0.331-4.86,3.424-7.31,5.371
				c-0.045-5.955-5.52-11.543-4.02-19.059c0.732-3.671,0.392-7.624,0.101-11.416c-0.756-9.861-5.367-17.109-14.877-20.773
				c16.667,0,33.333,0,50,0C-110,291.666-110,309.334-110,327z"/>
			<path fill-rule="evenodd" clip-rule="evenodd" fill="#FFFFFF" d="M-215,274c-12.473,5.817-17.197,15.406-15.686,30.461
				c0.394,3.923-0.4,8.08-1.264,11.992c-3.021,13.684-4.636,27.125,2.873,40.111c1.002,1.733,0.138,4.545,0.138,7.289
				c-9.314-0.08-13.805,5.254-16.061,13.146c0-34.334,0-68.666,0-103C-234.925,274-224.962,274-215,274z"/>
			<path fill-rule="evenodd" clip-rule="evenodd" fill="#FFFFFF" d="M-167,274c-8.672,3.504-15.145,9.68-20.769,17.795
				C-193.44,283.671-199.853,277.121-209,274C-195,274-181,274-167,274z"/>
			<path fill-rule="evenodd" clip-rule="evenodd" fill="#FFFFFF" d="M-187.748,357.061c-7.643,0-15.348,0.624-22.912-0.146
				c-11.111-1.133-14.897-5.695-15.66-16.875c-0.181-2.654-0.309-5.324-0.223-7.98c0.573-17.734,7.444-26.183,24.873-29.548
				c11.373-2.196,22.853-1.955,34.061,1.426c9.934,2.997,16.565,9.432,17.793,19.923c0.803,6.862,0.598,13.904,0.191,20.826
				c-0.365,6.219-4.458,10.338-10.356,11.202c-9.16,1.343-18.464,1.7-27.708,2.476
				C-187.708,357.929-187.728,357.494-187.748,357.061z M-186.189,324.914c0.61,0.727,1.887,2.762,2.267,2.606
				c1.422-0.583,3.213-1.649,3.671-2.953c1.634-4.652,5.19-5.671,9.399-5.712c4.236-0.04,7.738,1.119,9.653,5.508
				c0.617,1.414,2.438,2.303,3.707,3.432c0.542-1.826,1.85-3.824,1.485-5.447c-1.252-5.565-7.265-9.281-14.242-9.385
				c-7.356-0.109-13.551,3.439-15.312,8.811C-185.814,322.549-185.889,323.383-186.189,324.914z M-203.783,312.969
				c-9.053-0.048-15.292,3.168-16.779,8.246c-0.548,1.871,0.749,4.282,1.204,6.447c1.35-1.291,3.17-2.346,3.958-3.918
				c2.052-4.098,5.533-4.908,9.508-4.891c3.848,0.018,7.384,0.996,8.885,4.973c0.858,2.273,1.44,5.209,4.324,3.617
				c1.167-0.645,1.614-4.592,0.848-6.373C-194.419,315.061-199.796,313.095-203.783,312.969z M-188.59,342.473
				c-3.635,6.277-8.277,7.59-14.115,5.742c-0.849-0.27-2.12,0.797-3.196,1.246c0.839,0.853,1.527,2.102,2.544,2.49
				c5.414,2.07,10.393,0.803,14.952-2.552c4.677,3.414,9.689,4.606,15.107,2.508c0.964-0.374,1.546-1.731,2.305-2.634
				c-0.954-0.396-2.101-1.354-2.83-1.102C-179.847,350.256-184.514,348.449-188.59,342.473z M-188.531,329.646
				c-2.3,2.458-5.311,4.588-4.976,5.529c0.872,2.455,2.82,5.139,5.076,6.311c2.144,1.115,6.045-3.43,5.177-6.34
				C-183.8,333.316-186.146,332.023-188.531,329.646z"/>
			<path fill-rule="evenodd" clip-rule="evenodd" fill="#FFFFFF" d="M-165.365,449.703c6.271-10.4,6.082-20.495,2.437-30.852
				c-0.339-0.965,0.532-3.037,1.458-3.629c2.189-1.396,4.798-2.118,7.144-3.298c1.253-0.63,2.314-1.644,3.461-2.484
				c-1.443-0.452-3.093-1.589-4.291-1.228c-3.597,1.086-7.017,2.755-10.792,4.314c-4.928-8.139-11.444-16.251-21.124-18.843
				c-9.018-2.415-14.737-6.819-18.798-14.849c-1.647-3.256-4.964-5.667-7.469-9.893c3.862,0,7.725,0.031,11.586-0.017
				c1.472-0.019,4.017,0.198,4.249-0.399c2.487-6.413,8.135-3.606,12.423-4.334c1.507-0.256,4.208,0.67,4.774,1.83
				c1.662,3.409,4.387,2.695,7.123,2.971c7.216,0.725,14.414,1.646,21.604,2.603c3.002,0.399,3.757,2.257,3.763,5.282
				c0.015,7.969,0.145,15.978,1.023,23.882c0.309,2.778,2.323,6.591,4.62,7.669c4.728,2.219,4.423,5.457,2.464,8.376
				c-2.775,4.136-2.858,7.915-0.937,12.134c0.137,0.301,0.274,0.619,0.326,0.943c2.752,17.419-1.9,20.792-15.943,20.291
				C-159.017,450.076-161.769,449.893-165.365,449.703z M-188.883,378.436c0.727-0.018,1.454-0.035,2.181-0.053
				c2.033-3.329,6.152-7.021,5.649-9.908c-0.941-5.404-6.869-0.356-10.226-2.423c-0.541-0.333-3.583,2.117-3.51,2.257
				C-192.98,371.768-190.908,375.09-188.883,378.436z"/>
			<path fill-rule="evenodd" clip-rule="evenodd" fill="#FFFFFF" d="M-209.223,450.314c-6.675-0.415-13.474-0.229-19.961-1.562
				c-2.354-0.484-4.834-4.336-5.679-7.129c-0.962-3.182-1.141-7.292,0.075-10.297c2.58-6.375,1.692-11.947-0.898-17.963
				c-1.209-2.808-0.818-6.304-1.218-10.105c4.69,3.571,8.574,6.53,12.885,9.812c-0.877,13.787,5.126,25.402,15.244,35.287
				C-208.924,449.01-209.074,449.662-209.223,450.314z"/>
			<path fill-rule="evenodd" clip-rule="evenodd" fill="#FFFFFF" d="M-208.88,387.92c-2.654,2.693-4.525,4.588-6.391,6.486
				c-0.863,0.879-1.679,1.807-2.58,2.644c-2.003,1.862-4.046,3.681-6.509,5.913c-6.418-2.586-14.238-17.455-12.388-25.389
				c1.193-5.115,4.741-6.994,10.303-5.062C-218.017,375.437-212.448,381.556-208.88,387.92z"/>
			<path fill-rule="evenodd" clip-rule="evenodd" fill="#FFFFFF" d="M-223.579,301.82c0.91-4.431,1.314-9.381,3-13.847
				c2.133-5.651,7.945-7.681,13.162-4.589c4.156,2.462,7.616,6.099,11.318,9.158C-205.513,295.721-214.139,298.633-223.579,301.82z"
				/>
			<path fill-rule="evenodd" clip-rule="evenodd" fill="#FFFFFF" d="M-153.167,301.33c-8.38-2.805-16.842-5.637-25.18-8.429
				c4.456-7.766,12.547-12.447,18.198-10.151C-154.394,285.09-151.486,293.317-153.167,301.33z"/>
			<path fill-rule="evenodd" clip-rule="evenodd" d="M-186.189,324.914c0.3-1.531,0.375-2.365,0.629-3.141
				c1.761-5.371,7.956-8.92,15.312-8.811c6.977,0.104,12.99,3.819,14.242,9.385c0.365,1.623-0.943,3.621-1.485,5.447
				c-1.27-1.129-3.09-2.018-3.707-3.432c-1.915-4.389-5.417-5.548-9.653-5.508c-4.208,0.041-7.765,1.06-9.399,5.712
				c-0.458,1.304-2.249,2.37-3.671,2.953C-184.302,327.676-185.579,325.641-186.189,324.914z"/>
			<path fill-rule="evenodd" clip-rule="evenodd" d="M-203.783,312.969c3.987,0.126,9.364,2.092,11.947,8.102
				c0.766,1.781,0.319,5.729-0.848,6.373c-2.883,1.592-3.465-1.344-4.324-3.617c-1.501-3.977-5.037-4.955-8.885-4.973
				c-3.976-0.018-7.457,0.793-9.508,4.891c-0.788,1.572-2.608,2.627-3.958,3.918c-0.455-2.165-1.751-4.576-1.204-6.447
				C-219.076,316.137-212.836,312.921-203.783,312.969z"/>
			<path fill-rule="evenodd" clip-rule="evenodd" d="M-188.59,342.473c4.076,5.977,8.743,7.783,14.768,5.699
				c0.729-0.252,1.876,0.705,2.83,1.102c-0.758,0.902-1.341,2.26-2.305,2.634c-5.418,2.099-10.43,0.906-15.107-2.508
				c-4.56,3.354-9.538,4.622-14.952,2.552c-1.017-0.389-1.705-1.638-2.544-2.49c1.076-0.449,2.347-1.516,3.196-1.246
				C-196.867,350.062-192.225,348.75-188.59,342.473z"/>
			<path fill-rule="evenodd" clip-rule="evenodd" d="M-188.531,329.646c2.385,2.377,4.731,3.67,5.277,5.5
				c0.868,2.91-3.033,7.455-5.177,6.34c-2.256-1.172-4.205-3.855-5.076-6.311C-193.842,334.234-190.831,332.104-188.531,329.646z"/>
			<path fill-rule="evenodd" clip-rule="evenodd" d="M-188.883,378.436c-2.025-3.346-4.097-6.668-5.905-10.127
				c-0.073-0.14,2.97-2.59,3.51-2.257c3.356,2.066,9.284-2.981,10.226,2.423c0.503,2.887-3.616,6.579-5.649,9.908
				C-187.429,378.4-188.156,378.418-188.883,378.436z"/>
		</g>
	</g>
</g>
<g id="L4OFRc_1_">
	<g>
		<path fill-rule="evenodd" clip-rule="evenodd" fill="#E05F3F" d="M406.205,362.65c6.838,5.789,9.955,14.816,9.578,24.866
			c-0.938,24.969-21.953,47.346-45.037,47.394c-8.032,0.018-15.25-2.678-20.439-9.192c-2.128-2.671-3.998-3.144-7.088-1.431
			c-15.391,8.531-32.066,11.654-49.476,10.525c-13.16-0.854-25.746-4.13-37.428-10.591c-1.341-0.741-4.48-0.457-5.388,0.578
			c-14.044,15.997-33.667,10.904-47.054,0.512c-11.624-9.023-18.124-21.182-19.494-35.52c-1.011-10.585,1.887-20.593,10.476-28.033
			c-9.583-6.329-11.678-17.058-8.508-27.36c6.159-20.015,20-33.49,37.617-43.619c5.487-3.154,11.186-5.939,16.803-8.901
			c-14.878-20.608-16.677-41.9-4.001-63.915c-3.294-3.547-6.987-6.645-9.582-10.485c-7.685-11.372-6.096-26.012,4.375-35.1
			c10.097-8.763,23.808-10.718,35.359-0.597c3.838,3.362,6.441,8.349,8.92,12.963c1.385,2.576,2.032,3.727,5.353,2.871
			c12.297-3.17,24.806-2.943,37.099-0.174c3.772,0.85,4.797,0.17,5.928-3.142c4.365-12.777,14.253-18.829,26.89-19.054
			c12.323-0.22,24.397,10.973,25.94,23.212c1.463,11.585-2.65,20.405-12.01,27.056c-0.664,0.471-1.156,1.184-1.958,2.027
			c12.796,22.027,11.241,43.374-3.836,64.387c4.927,2.564,9.882,5.186,14.874,7.734c13.639,6.966,24.98,16.883,33.121,29.593
			c5.766,9.001,10.516,19.389,6.578,30.713C412.287,354.371,408.973,358.153,406.205,362.65z M376.307,356.068
			c5.395,0,10.541-0.278,15.646,0.073c5.742,0.396,12.691-2.058,13.762-5.821c1.998-7.018,1.652-14.133-1.748-20.574
			c-10.529-19.947-27.834-32.013-48.203-40.24c-1.208-0.488-3.382-0.125-4.406,0.705c-17.219,13.969-36.64,19.926-58.872,17.926
			c-16.413-1.477-30.586-7.447-43.361-17.543c-1.301-1.029-4.147-1.354-5.652-0.657c-6.797,3.147-13.878,6.069-19.922,10.382
			c-14.22,10.148-27.367,21.268-29.953,40.398c-1.345,9.949,4.423,16.4,14.583,15.441c5.072-0.48,10.228-0.084,15.734-0.084
			c2.02-16.965,9.617-32.031,22.906-44.02c1.203-1.085,3.902-0.512,5.907-0.709c-0.194,1.99,0.39,4.775-0.705,5.847
			c-10.327,10.11-16.415,22.479-19.672,36.297c-0.617,2.618-2.652,5.743,1.409,8.554c18.521,12.822,27.044,30.209,22.827,52.969
			c24.334,17.035,67.422,15.383,87.351-0.74c-0.587-2.385-1.221-4.752-1.729-7.145c-0.169-0.797-0.037-1.66-0.01-2.492
			c0.596-18.227,8.83-32.195,23.633-42.547c1.121-0.783,2.889-2.223,2.723-3.016c-1.297-6.192-2.163-12.682-4.758-18.35
			c-4.059-8.868-8.859-17.482-16.361-24.215c-0.879-0.789-0.875-4.07-0.025-4.881c0.973-0.929,4.006-1.171,4.992-0.342
			c3.146,2.647,5.896,5.816,8.555,8.987C369.842,330.869,373.912,343.562,376.307,356.068z M299.945,301.434
			c2.244-0.436,4.477-1.175,6.734-1.256c12.835-0.459,24.309-4.822,34.633-12.193c14.369-10.262,22.422-24.244,22.641-42.019
			c0.125-10.103-4.041-19.082-9.719-27.351c-2.326-3.389-1.561-5.825,2.1-7.443c10.381-4.59,14.32-11.518,12.748-22.418
			c-1.461-10.125-13.086-17.732-23.033-15.072c-9.927,2.655-14.659,8.496-15.111,18.65c-0.202,4.539-2.34,6.084-6.613,4.759
			c-16.119-5.001-32.24-5.136-48.377-0.074c-4.48,1.405-6.679-0.247-6.882-5.024c-0.07-1.639-0.033-3.342-0.473-4.895
			c-2.36-8.312-10.699-14.338-19.3-14.098c-7.482,0.21-16.886,7.631-18.29,14.373c-2.217,10.646,2.778,19.295,10.54,23.005
			c6.836,3.269,7.1,4.317,2.657,10.855c-5.604,8.245-8.461,17.515-8.068,27.296c0.51,12.73,5.776,23.893,14.779,32.89
			C264.363,294.862,281.241,300.296,299.945,301.434z M191.988,388.383c2.774,17.785,11.311,30.093,27.156,36.762
			c10.672,4.491,23.167,1.863,28.608-10.223c3.972-8.82,2.562-17.463-0.838-25.729c-4.195-10.199-11.083-18.293-21.906-23.049
			c0.38,3.649,1.013,6.734,0.876,9.783c-0.061,1.351-1.764,3.758-2.576,3.697c-1.492-0.108-3.766-1.428-4.141-2.704
			c-1.2-4.081-1.678-8.373-2.533-13.128c-9.069-3.99-21.432,4.258-23.375,16.115c3.762,2.359,7.558,4.341,10.812,6.987
			c1.214,0.987,1.166,3.528,1.693,5.36c-1.728,0.289-3.676,1.224-5.137,0.727C197.897,392.053,195.449,390.292,191.988,388.383z
			 M407.031,380.098c-3.609-13.068-15.754-20.631-23.443-16.157c-0.984,5.005-1.498,9.165-2.748,13.09
			c-0.402,1.257-2.756,1.892-4.217,2.811c-0.852-1.354-2.363-2.682-2.422-4.069c-0.127-3.064,0.476-6.16,0.82-9.648
			c-1.805,0.836-3.447,1.297-4.734,2.242c-10.229,7.513-17.303,16.933-19.562,29.889c-1.701,9.75,0.127,18.117,7.588,24.516
			c6.582,5.644,14.434,5.599,22.213,2.478c16.262-6.523,24.77-18.972,27.535-36.899c-3.041,1.791-5.242,3.612-7.766,4.396
			c-1.82,0.566-4.07-0.246-6.129-0.443c0.672-2.009,0.748-4.768,2.137-5.873C399.432,383.94,403.211,382.273,407.031,380.098z"/>
		<path fill-rule="evenodd" clip-rule="evenodd" fill="#E05F3F" d="M243.699,203.887c-9.026-5.972-6.418-17.157,0.448-21.375
			c3.834-2.355,11.917-1.942,14.838,1.29c1.05,1.163,1.731,4.236,1.011,5.053c-1.073,1.216-3.873,2.082-5.338,1.523
			c-2.717-1.036-5.518-3.014-7.364,0.147c-0.98,1.678-0.176,4.682,0.415,6.932C248.691,201.197,247.343,203.119,243.699,203.887z"/>
	</g>
</g>
<rect x="-495" y="49" fill-rule="evenodd" clip-rule="evenodd" fill="none" stroke="#E05F3F" stroke-width="22.5" stroke-miterlimit="10" width="124" height="150.924"/>
<rect x="-609" y="-127.118" fill-rule="evenodd" clip-rule="evenodd" fill="none" stroke="#FFFFFF" stroke-width="22.5" stroke-miterlimit="10" width="124" height="150.924"/>
<path fill="#E05F3F" d="M-302.998-49.11h65.178v12.314c0,0,0.422,10.455,13.924,3.287c13.502-7.167,52.731-28.682,61.166-32.904
	c8.435-4.212,13.08-5.57-4.212-13.754c-17.303-8.184-58.483-32.643-62.147-33.499c-3.664-0.833-7.042-2.1-7.042,4.223
	s0,15.191,0,15.191h-66.867V-49.11z"/>
<path fill-rule="evenodd" clip-rule="evenodd" fill="#E05F3F" d="M330.057,249.924c-11.945-15.613-32.364-18.949-49.252-9.706
	c-15.941,8.726-20.821,27.304-10.59,41.835c6.965,9.891,17.368,14.191,31.058,14.032c5.69,0.794,12.04-1.663,18.276-4.966
	C335.871,282.472,339.734,262.572,330.057,249.924z M326.753,270.771c-2.595,9.532-13.19,17.221-23.172,17.438
	c-8.06,0.174-15.434-0.802-22.308-5.885c-11.564-8.553-11.37-25.207,1.324-33.401c0.673,7.008,4.137,11.562,10.267,14.337
	c0.014,0.003,9.127,1.728,13.264,0c0.593-0.248,1.262-0.477,1.965-0.688c5.783-2.288,8.62-6.841,9.164-13.188
	C324.621,251.32,328.879,262.965,326.753,270.771z"/>
<g id="zclClD.tif">
	<g>
		<path fill="#E05F3F" d="M303.992,322.833c2.045,0,4.09,0,6.135,0c-0.336,3.658-0.672,7.316-1.004,10.935
			c3.111,1.146,6.147,2.263,9.184,3.38c0,0.682,0,1.363,0,2.045c-0.939,2.711-1.879,5.422-2.82,8.136
			c-2.721-1.02-5.307-1.988-8.348-3.128c-1.628,10.868-3.171,21.175-4.869,32.512c5.138-1.513,9.395-2.767,13.787-4.06
			c0.44,2.091,0.824,4.529,1.486,6.891c0.709,2.523-0.268,3.946-2.607,4.516c-4.686,1.142-9.396,2.17-14.502,3.338
			c-0.383,3.709-0.798,7.744-1.213,11.779c-2.273,0-4.544,0-6.816,0c0.623-4.217,1.245-8.437,1.884-12.758
			c-1.011-0.327-1.854-0.614-2.707-0.874c-8.677-2.648-13.854-8.565-16.113-17.221c-0.224-0.859-0.523-1.699-0.787-2.547
			c0-3.636,0-7.271,0-10.906c0.253-0.728,0.562-1.439,0.753-2.183c2.541-9.888,8.648-16.252,18.643-18.604
			c2.717-0.64,5.557-0.761,8.476-1.138C303.04,329.524,303.517,326.179,303.992,322.833z M300.77,344.122
			c-6.834-0.301-12.023,4.182-13.059,11.203c-1.265,8.573,1.141,17.141,8.436,19.119
			C297.678,364.405,299.202,354.401,300.77,344.122z"/>
	</g>
</g>
<circle fill-rule="evenodd" clip-rule="evenodd" fill="#E05F3F" cx="265.682" cy="229.721" r="5.388"/>
<circle fill-rule="evenodd" clip-rule="evenodd" fill="#E05F3F" cx="335.295" cy="229.721" r="5.388"/>
</svg>
