<?xml version="1.0" encoding="utf-8"?>
<!-- Generator: Adobe Illustrator 16.0.0, SVG Export Plug-In . SVG Version: 6.00 Build 0)  -->
<!DOCTYPE svg PUBLIC "-//W3C//DTD SVG 1.1//EN" "http://www.w3.org/Graphics/SVG/1.1/DTD/svg11.dtd">
<svg version="1.1" id="Layer_1" xmlns="http://www.w3.org/2000/svg" xmlns:xlink="http://www.w3.org/1999/xlink" x="0px" y="0px"
	 width="30px" height="30px" viewBox="0 0 30 30" enable-background="new 0 0 30 30" xml:space="preserve">
<g id="RID4yR.tif">
	<g>
		<path fill-rule="evenodd" clip-rule="evenodd" fill="#E05F3F" stroke="#DF4A26" stroke-width="0.0476" d="M7.116,22.175
			c-0.684-0.336-0.723-0.404-0.573-1.148c0.52-2.58,1.918-4.541,4.163-5.908c0.22-0.135,0.354-0.109,0.541,0.062
			c0.858,0.778,1.874,1.234,3.021,1.379c1.598,0.202,3.031-0.216,4.3-1.205c0.024-0.02,0.051-0.038,0.075-0.058
			c0.401-0.337,0.404-0.341,0.855-0.053c2.136,1.368,3.465,3.292,3.965,5.783c0.023,0.122,0.041,0.247,0.057,0.37
			c0.047,0.38-0.111,0.609-0.483,0.713c-0.051,0.015-0.099,0.043-0.147,0.065C17.633,22.175,12.375,22.175,7.116,22.175z"/>
		<path fill-rule="evenodd" clip-rule="evenodd" fill="#E05F3F" stroke="#DF4A26" stroke-width="0.0476" d="M15.004,15.032
			c-2.601,0.028-4.868-2.151-4.867-4.862c0.002-2.68,2.218-4.865,4.864-4.866c2.652,0,4.876,2.194,4.867,4.888
			C19.858,12.894,17.594,15.059,15.004,15.032z"/>
	</g>
</g>
<circle fill-rule="evenodd" clip-rule="evenodd" fill="none" stroke="#E05F3F" stroke-width="1.8893" cx="15" cy="14.998" r="12.965"/>
</svg>
